<svg width="34" height="34" viewBox="0 0 34 34" fill="none" xmlns="http://www.w3.org/2000/svg">
<g clip-path="url(#clip0_2543_5679)">
<path fill-rule="evenodd" clip-rule="evenodd" d="M16.997 17.1719V33.6846C17.2845 33.6846 17.4735 33.6222 17.7316 33.4748L30.9538 25.9193C31.4757 25.6201 31.6886 25.1568 31.6886 24.555V9.23419C31.6886 8.93233 31.625 8.75174 31.4784 8.49963L17.42 16.443C17.1585 16.5925 16.997 16.8707 16.997 17.1719ZM24.3426 26.6539C24.3426 27.0735 24.1853 27.2834 23.818 27.4934L19.4106 30.0118C19.0958 30.2216 18.676 30.1168 18.676 29.697V18.4686C18.676 18.1683 18.9403 17.779 19.2007 17.6291L29.2748 11.8576C29.5546 11.6966 29.7994 11.9545 29.7994 12.2774V18.2589C29.7994 18.5689 29.6532 18.8475 29.3796 18.9934L24.8674 21.407C24.5938 21.5529 24.3426 21.8314 24.3426 22.1415V26.6539Z" fill="#999999"/>
<path fill-rule="evenodd" clip-rule="evenodd" d="M2.3068 24.5549V9.23414C2.3068 8.63162 2.62317 8.06396 3.14629 7.76501L15.9486 0.524333C16.2245 0.37816 16.6832 0.314462 16.998 0.314462C17.3129 0.314462 17.7985 0.392426 18.0475 0.524336L30.7449 7.76501C30.996 7.91346 31.3374 8.25538 31.4794 8.49958L17.4177 16.4748C17.1562 16.6243 16.998 16.9081 16.998 17.2094V33.6846C16.7105 33.6846 16.4167 33.6221 16.1586 33.4747L3.25123 26.0242C2.7281 25.7251 2.3068 25.1575 2.3068 24.5549ZM4.19567 12.2773V18.2588C4.19567 18.6785 4.30061 18.8884 4.72036 19.0983L9.12773 21.6168C9.54748 21.8267 9.65242 22.1414 9.65242 22.4563V26.6538C9.65242 27.0734 9.75736 27.2834 10.1771 27.4933L14.5845 30.0118C15.0042 30.2217 15.3191 30.1167 15.3191 29.6969V18.4687C15.3191 18.1538 15.2141 17.839 14.7944 17.6292L4.93023 11.9625C4.61542 11.7526 4.19567 11.8576 4.19567 12.2773ZM21.4055 5.14158L17.5227 7.34526C17.208 7.55515 16.7881 7.55515 16.4734 7.34526L12.5907 5.14158C12.3351 4.99712 12.0072 4.99786 11.7512 5.14158L6.92405 7.86995C6.5043 8.07983 6.5043 8.49958 6.92405 8.70945L16.5782 14.2711C16.8366 14.4191 17.1595 14.4191 17.4177 14.2711L27.072 8.70945C27.3869 8.49958 27.4918 8.07983 27.072 7.86995L22.2449 5.14158C21.9889 4.99786 21.661 4.99712 21.4055 5.14158Z" fill="#F2F2F2"/>
</g>
<defs>
<clipPath id="clip0_2543_5679">
<rect width="33.5368" height="33.5368" fill="white" transform="scale(1.0138)"/>
</clipPath>
</defs>
</svg>
