<svg width="7" height="5" viewBox="0 0 7 5" fill="none" xmlns="http://www.w3.org/2000/svg">
<path fill-rule="evenodd" clip-rule="evenodd" d="M6.5888 0H6.177C5.94957 0 5.7652 0.184369 5.7652 0.4118V3.98073C5.7652 4.20816 5.94957 4.39253 6.177 4.39253H6.5888C6.81623 4.39253 7.0006 4.20816 7.0006 3.98073V0.4118C7.0006 0.184369 6.81623 0 6.5888 0ZM4.25553 0.960933H4.66733C4.89476 0.960933 5.07913 1.1453 5.07913 1.37273V3.9808C5.07913 4.20823 4.89476 4.3926 4.66733 4.3926H4.25553C4.0281 4.3926 3.84373 4.20823 3.84373 3.9808V1.37273C3.84373 1.1453 4.0281 0.960933 4.25553 0.960933ZM2.74506 1.92187H2.33326C2.10583 1.92187 1.92146 2.10624 1.92146 2.33367V3.98087C1.92146 4.2083 2.10583 4.39266 2.33326 4.39266H2.74506C2.97249 4.39266 3.15686 4.2083 3.15686 3.98087V2.33367C3.15686 2.10624 2.97249 1.92187 2.74506 1.92187ZM0.8236 2.74547H0.4118C0.184369 2.74547 0 2.92984 0 3.15727V3.98087C0 4.2083 0.184369 4.39266 0.4118 4.39266H0.8236C1.05103 4.39266 1.2354 4.2083 1.2354 3.98087V3.15727C1.2354 2.92984 1.05103 2.74547 0.8236 2.74547Z" fill="white"/>
</svg>
