<svg width="7" height="5" viewBox="0 0 7 5" fill="none" xmlns="http://www.w3.org/2000/svg">
<path fill-rule="evenodd" clip-rule="evenodd" d="M3.48477 1.03832C4.49594 1.03836 5.46844 1.42657 6.20127 2.12269C6.25645 2.17644 6.34466 2.17576 6.39901 2.12117L6.92652 1.58925C6.95404 1.56156 6.96938 1.52406 6.96916 1.48504C6.96893 1.44602 6.95315 1.4087 6.9253 1.38134C5.00185 -0.460446 1.96738 -0.460446 0.0439315 1.38134C0.0160689 1.40868 0.000260071 1.44599 3.14674e-06 1.48501C-0.00025237 1.52403 0.0150624 1.56154 0.0425625 1.58925L0.570226 2.12117C0.624541 2.17584 0.712815 2.17652 0.767966 2.12269C1.50089 1.42652 2.4735 1.03832 3.48477 1.03832ZM3.48473 2.769C4.0403 2.76897 4.57605 2.97529 4.98787 3.34789C5.04357 3.40077 5.13131 3.39962 5.18561 3.34531L5.71251 2.81338C5.74026 2.78548 5.75565 2.74763 5.75525 2.7083C5.75485 2.66897 5.73869 2.63144 5.71038 2.6041C4.45631 1.43855 2.51422 1.43855 1.26015 2.6041C1.23183 2.63143 1.21566 2.66898 1.21529 2.70833C1.21492 2.74767 1.23037 2.78552 1.25818 2.81338L1.78493 3.34531C1.83922 3.39962 1.92697 3.40077 1.98267 3.34789C2.39421 2.97554 2.92953 2.76923 3.48473 2.769ZM4.53986 3.9334C4.54066 3.97284 4.52514 4.01087 4.49696 4.0385L3.58553 4.95752C3.55881 4.98453 3.52239 4.99973 3.48438 4.99973C3.44637 4.99973 3.40995 4.98453 3.38323 4.95752L2.47164 4.0385C2.44348 4.01085 2.42799 3.97281 2.42883 3.93337C2.42966 3.89393 2.44675 3.85658 2.47605 3.83014C3.05813 3.33823 3.91063 3.33823 4.4927 3.83014C4.52199 3.8566 4.53905 3.89396 4.53986 3.9334Z" fill="white"/>
</svg>
