<svg width="40" height="40" viewBox="0 0 40 40" fill="none" xmlns="http://www.w3.org/2000/svg">
<rect x="0.101827" y="0.0272845" width="29.3006" height="29.3006" rx="2.15118" transform="matrix(0.870274 -0.502455 0.502451 0.870276 -0.212472 14.6382)" stroke="#EB22EF" stroke-width="0.148357"/>
<rect x="0.0912956" y="0.0527096" width="29.3006" height="29.3006" rx="2.15118" transform="matrix(0.970664 -0.260091 0.260087 0.970666 1.86728 9.56197)" stroke="#EB22EF" stroke-width="0.148357"/>
<rect x="0.0912956" y="0.0527096" width="29.3006" height="29.3006" rx="2.15118" transform="matrix(0.970664 -0.260091 0.260087 0.970666 1.86728 9.56197)" stroke="#EF6C22" stroke-width="0.148357"/>
<rect x="5.27732" y="5.2772" width="29.4451" height="29.4451" rx="2.15118" stroke="#EB22EF" stroke-width="0.148357"/>
<rect x="0.0527097" y="0.091296" width="29.3006" height="29.3006" rx="2.15118" transform="matrix(0.970664 0.26009 -0.260088 0.970667 9.56209 1.86618)" stroke="#2622EF" stroke-width="0.148357"/>
<rect x="0.0272844" y="0.101827" width="29.3006" height="29.3006" rx="2.15118" transform="matrix(0.870276 0.50245 -0.502456 0.870274 14.6396 -0.213821)" stroke="#EF2222" stroke-width="0.148357"/>
<rect x="-4.44309e-08" y="0.10542" width="29.3006" height="29.3006" rx="2.15118" transform="matrix(0.710573 0.710579 -0.710574 0.710579 20.0749 -0.895765)" stroke="#22E3EF" stroke-width="0.148357"/>
<rect x="-0.0272846" y="0.101827" width="29.3006" height="29.3006" rx="2.15118" transform="matrix(0.502452 0.870276 -0.870274 0.502455 25.4902 -0.138668)" stroke="#EB22EF" stroke-width="0.148357"/>
<rect x="-0.0272846" y="0.101827" width="29.3006" height="29.3006" rx="2.15118" transform="matrix(0.502452 0.870276 -0.870274 0.502455 25.4902 -0.138668)" stroke="#00BF63" stroke-width="0.148357"/>
</svg>
