<svg width="29" height="23" viewBox="0 0 29 23" fill="none" xmlns="http://www.w3.org/2000/svg">
<mask id="mask0_2543_5727" style="mask-type:alpha" maskUnits="userSpaceOnUse" x="-5" y="-9" width="39" height="40">
<rect x="-4.83366" y="-8.05553" width="38.6659" height="38.6659" fill="#D9D9D9"/>
</mask>
<g mask="url(#mask0_2543_5727)">
<path d="M2.618 22.5551C1.86617 22.5551 1.24214 22.307 0.745929 21.8108C0.248643 21.3135 0 20.6889 0 19.9371V2.618C0 1.86617 0.248643 1.24214 0.745929 0.745929C1.24214 0.248643 1.86617 0 2.618 0H26.3814C27.1332 0 27.7578 0.248643 28.2551 0.745929C28.7513 1.24214 28.9994 1.86617 28.9994 2.618V19.9371C28.9994 20.6889 28.7513 21.3135 28.2551 21.8108C27.7578 22.307 27.1332 22.5551 26.3814 22.5551H2.618ZM14.4997 11.4789L27.3883 3.02077L26.905 1.61108L14.4997 9.66647L2.0944 1.61108L1.61108 3.02077L14.4997 11.4789Z" fill="#C29802"/>
</g>
</svg>
