<svg width="32" height="25" viewBox="0 0 32 25" fill="none" xmlns="http://www.w3.org/2000/svg">
<mask id="mask0_2684_7008" style="mask-type:alpha" maskUnits="userSpaceOnUse" x="-6" y="-9" width="44" height="43">
<rect x="-5.33333" y="-8.88889" width="42.6667" height="42.6667" fill="#D9D9D9"/>
</mask>
<g mask="url(#mask0_2684_7008)">
<path d="M2.88889 24.8889C2.05926 24.8889 1.37067 24.6151 0.823111 24.0676C0.27437 23.5188 0 22.8296 0 22V2.88889C0 2.05926 0.27437 1.37067 0.823111 0.823111C1.37067 0.27437 2.05926 0 2.88889 0H29.1111C29.9407 0 30.6299 0.27437 31.1787 0.823111C31.7262 1.37067 32 2.05926 32 2.88889V22C32 22.8296 31.7262 23.5188 31.1787 24.0676C30.6299 24.6151 29.9407 24.8889 29.1111 24.8889H2.88889ZM16 12.6667L1.77778 3.33333V22C1.77778 22.3259 1.88148 22.5926 2.08889 22.8C2.2963 23.0074 2.56296 23.1111 2.88889 23.1111H29.1111C29.437 23.1111 29.7037 23.0074 29.9111 22.8C30.1185 22.5926 30.2222 22.3259 30.2222 22V3.33333L16 12.6667ZM16 10.6667L29.6889 1.77778H2.31111L16 10.6667ZM1.77778 3.33333V1.77778V22C1.77778 22.3259 1.88148 22.5926 2.08889 22.8C2.2963 23.0074 2.56296 23.1111 2.88889 23.1111H1.77778V22V3.33333Z" fill="white"/>
</g>
</svg>
