<svg width="16" height="16" viewBox="0 0 16 16" fill="none" xmlns="http://www.w3.org/2000/svg">
<path fill-rule="evenodd" clip-rule="evenodd" d="M8.16602 5C8.99102 5 9.66602 4.325 9.66602 3.5C9.66602 2.675 8.99102 2 8.16602 2C7.34102 2 6.66602 2.675 6.66602 3.5C6.66602 4.325 7.34102 5 8.16602 5ZM8.16602 6.5C7.34102 6.5 6.66602 7.175 6.66602 8C6.66602 8.825 7.34102 9.5 8.16602 9.5C8.99102 9.5 9.66602 8.825 9.66602 8C9.66602 7.175 8.99102 6.5 8.16602 6.5ZM8.16602 11C7.34102 11 6.66602 11.675 6.66602 12.5C6.66602 13.325 7.34102 14 8.16602 14C8.99102 14 9.66602 13.325 9.66602 12.5C9.66602 11.675 8.99102 11 8.16602 11Z" fill="#5F6368"/>
</svg>
