<svg width="113" height="25" viewBox="0 0 113 25" fill="none" xmlns="http://www.w3.org/2000/svg">
<path d="M35.4003 7.60505C38.1285 7.60505 40.3491 9.80113 40.3491 12.4992C40.3491 15.1973 38.1285 17.3934 35.4003 17.3934H32.0083V7.60505H35.4003ZM35.4003 4.80338H30.732C29.8812 4.80338 29.1754 5.50141 29.1754 6.34287V18.6556C29.1754 19.497 29.8812 20.1951 30.732 20.1951H35.4003C39.7045 20.1951 43.182 16.7559 43.182 12.4992C43.182 8.24252 39.7045 4.80338 35.4003 4.80338Z" fill="white"/>
<path d="M56.8414 18.7957C56.8414 19.5607 56.2001 20.1949 55.4266 20.1949C54.6531 20.1949 54.0117 19.5607 54.0117 18.7957V14.598C54.0117 13.0457 52.7516 11.7995 51.1821 11.7995C49.6125 11.7995 48.3524 13.0457 48.3524 14.598V18.7941C48.3524 19.5591 47.711 20.1933 46.9375 20.1933C46.164 20.1933 45.5227 19.5591 45.5227 18.7941V6.2041C45.5227 5.43914 46.164 4.80486 46.9375 4.80486C47.711 4.80486 48.3524 5.43914 48.3524 6.2041V9.76755C49.1694 9.28626 50.1427 9.00258 51.1821 9.00258C54.2986 9.00258 56.8398 11.5158 56.8398 14.598V18.7957H56.8414Z" fill="white"/>
<path d="M62.4119 18.7959C62.4119 19.5609 61.7705 20.1952 60.997 20.1952C60.2235 20.1952 59.5822 19.5609 59.5822 18.7959V10.4021C59.5822 9.63711 60.2235 9.00283 60.997 9.00283C61.7705 9.00283 62.4119 9.63711 62.4119 10.4021V18.7959Z" fill="white"/>
<path d="M81.0654 18.7957C81.0654 19.5607 80.4241 20.1949 79.6506 20.1949C79.2751 20.1949 78.9222 20.0419 78.6563 19.779L73.2854 14.4673L67.9145 19.779C67.6486 20.0419 67.2957 20.1949 66.9202 20.1949C66.1467 20.1949 65.5054 19.5607 65.5054 18.7957V6.2041C65.5054 5.43914 66.1467 4.80486 66.9202 4.80486C67.6937 4.80486 68.3351 5.43914 68.3351 6.2041V15.4299L72.2911 11.5174C72.5554 11.2337 72.9325 11.1014 73.2854 11.1014C73.6399 11.1014 74.0154 11.2321 74.2797 11.5174L78.2357 15.4299V6.2041C78.2357 5.43914 78.8771 4.80486 79.6506 4.80486C80.4241 4.80486 81.0654 5.43914 81.0654 6.2041V18.7957Z" fill="white"/>
<path d="M86.9919 18.7959C86.9919 19.5609 86.3505 20.1952 85.577 20.1952C84.8035 20.1952 84.1622 19.5609 84.1622 18.7959V10.4021C84.1622 9.63711 84.8035 9.00283 85.577 9.00283C86.3505 9.00283 86.9919 9.63711 86.9919 10.4021V18.7959Z" fill="white"/>
<path d="M96.0981 17.3963C96.4961 17.3963 96.8055 17.0903 96.8055 16.6967C96.8055 16.3031 96.4961 15.9971 96.0981 15.9971H93.2684C91.3234 15.9971 89.7313 14.4225 89.7313 12.499C89.7313 10.5754 91.3218 9.00087 93.2684 9.00087H97.5113C98.2848 9.00087 98.9262 9.63515 98.9262 10.4001C98.9262 11.1651 98.2848 11.7994 97.5113 11.7994H93.2684C92.8704 11.7994 92.561 12.1053 92.561 12.499C92.561 12.8926 92.8704 13.1986 93.2684 13.1986H96.0981C98.0431 13.1986 99.6336 14.7731 99.6336 16.6967C99.6336 18.6203 98.0431 20.1948 96.0981 20.1948H91.1461C90.3726 20.1948 89.7313 19.5605 89.7313 18.7956C89.7313 18.0306 90.3726 17.3963 91.1461 17.3963H96.0981Z" fill="white"/>
<path d="M107.326 20.1936C104.209 20.1936 101.668 17.6804 101.668 14.5982C101.668 11.5161 104.209 9.00283 107.326 9.00283C110.442 9.00283 112.984 11.5161 112.984 14.5982C112.984 15.3632 112.342 15.9975 111.569 15.9975H104.872C105.358 16.8501 106.264 17.3967 107.326 17.3967H108.741C109.514 17.3967 110.156 18.031 110.156 18.7959C110.156 19.5609 109.514 20.1952 108.741 20.1952H107.326V20.1936ZM104.872 13.199H109.779C109.292 12.3687 108.364 11.7997 107.326 11.7997C106.266 11.8013 105.358 12.3687 104.872 13.199Z" fill="white"/>
<path d="M60.9976 7.95247C61.876 7.95247 62.5881 7.24752 62.5881 6.37793C62.5881 5.50833 61.876 4.80338 60.9976 4.80338C60.1192 4.80338 59.4071 5.50833 59.4071 6.37793C59.4071 7.24752 60.1192 7.95247 60.9976 7.95247Z" fill="white"/>
<path d="M85.5776 7.95247C86.456 7.95247 87.1681 7.24752 87.1681 6.37793C87.1681 5.50833 86.456 4.80338 85.5776 4.80338C84.6992 4.80338 83.9871 5.50833 83.9871 6.37793C83.9871 7.24752 84.6992 7.95247 85.5776 7.95247Z" fill="white"/>
<path d="M17.6275 0H1.62272C0.726759 0 0 0.718745 0 1.60483V19.0922C0 19.7408 0.394803 20.3257 1.00232 20.5743C1.60661 20.8229 2.30597 20.6858 2.77006 20.2269L10.5855 12.4976C11.2188 11.8713 11.2188 10.8545 10.5855 10.2282C9.95225 9.60187 8.92415 9.60187 8.29086 10.2282L3.24544 15.2164V3.20806H17.6292C20.0576 3.20806 22.0348 5.1619 22.0348 7.56516V17.4332C22.0348 19.8348 20.0592 21.7903 17.6292 21.7903H9.89102L14.9364 16.8005C15.5697 16.1742 15.5697 15.1574 14.9364 14.5311C14.3031 13.9048 13.275 13.9048 12.6417 14.5311L4.82626 22.2604C4.36217 22.7194 4.22358 23.4094 4.47497 24.0086C4.72635 24.6079 5.31775 24.9999 5.97361 24.9999H17.6275C21.8463 24.9999 25.277 21.6054 25.277 17.4348V7.56516C25.2787 3.39293 21.8463 0 17.6275 0Z" fill="white"/>
<path d="M17.5603 13.54C18.4563 13.54 19.1831 12.8213 19.1831 11.9352V7.63229C19.1831 6.74621 18.4563 6.02746 17.5603 6.02746H13.2095C12.3135 6.02746 11.5867 6.74621 11.5867 7.63229C11.5867 8.51837 12.3135 9.23711 13.2095 9.23711H15.9376V11.9352C15.9376 12.8213 16.6644 13.54 17.5603 13.54Z" fill="white"/>
</svg>
