<svg width="10" height="10" viewBox="0 0 10 10" fill="none" xmlns="http://www.w3.org/2000/svg">
<path d="M4.99974 5.4169C5.22986 5.4169 5.4164 5.23036 5.4164 5.00024C5.4164 4.77013 5.22986 4.58358 4.99974 4.58358C4.76963 4.58358 4.58308 4.77013 4.58308 5.00024C4.58308 5.23036 4.76963 5.4169 4.99974 5.4169Z" fill="white" stroke="white" stroke-width="0.406974" stroke-linecap="round" stroke-linejoin="round"/>
<path d="M7.91716 5.4169C8.14727 5.4169 8.33382 5.23036 8.33382 5.00024C8.33382 4.77013 8.14727 4.58358 7.91716 4.58358C7.68704 4.58358 7.5005 4.77013 7.5005 5.00024C7.5005 5.23036 7.68704 5.4169 7.91716 5.4169Z" fill="white" stroke="white" stroke-width="0.406974" stroke-linecap="round" stroke-linejoin="round"/>
<path d="M2.08232 5.4169C2.31244 5.4169 2.49898 5.23036 2.49898 5.00024C2.49898 4.77013 2.31244 4.58358 2.08232 4.58358C1.85221 4.58358 1.66567 4.77013 1.66567 5.00024C1.66567 5.23036 1.85221 5.4169 2.08232 5.4169Z" fill="white" stroke="white" stroke-width="0.406974" stroke-linecap="round" stroke-linejoin="round"/>
</svg>
