<svg width="14" height="14" viewBox="0 0 14 14" fill="none" xmlns="http://www.w3.org/2000/svg">
<path d="M13.9999 7.32808C13.9999 7.81753 13.8823 8.27144 13.6472 8.68706C13.412 9.10268 13.0976 9.42807 12.7011 9.65502C12.712 9.72885 12.7175 9.84369 12.7175 9.99955C12.7175 10.7406 12.4687 11.3695 11.9765 11.889C11.4816 12.4113 10.8855 12.671 10.1882 12.671C9.87651 12.671 9.57846 12.6136 9.29682 12.4988C9.07807 12.9472 8.76362 13.3081 8.35073 13.5843C7.94058 13.8632 7.48941 13.9999 6.99996 13.9999C6.49957 13.9999 6.04567 13.8659 5.64098 13.5925C5.23356 13.3218 4.92185 12.9581 4.7031 12.4988C4.42146 12.6136 4.12615 12.671 3.8117 12.671C3.11443 12.671 2.51561 12.4113 2.01522 11.889C1.51483 11.3695 1.26601 10.7378 1.26601 9.99955C1.26601 9.91752 1.27695 9.80268 1.29609 9.65502C0.899604 9.42534 0.585153 9.10268 0.349998 8.68706C0.117577 8.27144 0 7.81753 0 7.32808C0 6.80855 0.131249 6.33004 0.391013 5.89801C0.650777 5.46598 1.00078 5.14606 1.43827 4.93825C1.32343 4.62654 1.26601 4.31208 1.26601 4.00037C1.26601 3.26209 1.51483 2.63045 2.01522 2.11093C2.51561 1.5914 3.11443 1.3289 3.8117 1.3289C4.12341 1.3289 4.42146 1.38632 4.7031 1.50116C4.92185 1.05273 5.2363 0.691793 5.64919 0.415623C6.05934 0.139452 6.51051 0 6.99996 0C7.48941 0 7.94058 0.139452 8.35073 0.412888C8.76089 0.689058 9.07807 1.04999 9.29682 1.49843C9.57846 1.38359 9.87377 1.32616 10.1882 1.32616C10.8855 1.32616 11.4816 1.58593 11.9765 2.10819C12.4714 2.63045 12.7175 3.25936 12.7175 3.99763C12.7175 4.34216 12.6656 4.65388 12.5616 4.93552C12.9991 5.14333 13.3491 5.46325 13.6089 5.89528C13.8687 6.33004 13.9999 6.80855 13.9999 7.32808ZM6.70191 9.43627L9.59213 5.10778C9.66596 4.99294 9.68783 4.86716 9.66323 4.73318C9.63588 4.59919 9.56752 4.49255 9.45268 4.42146C9.33784 4.34763 9.21206 4.32302 9.07807 4.34216C8.94135 4.36404 8.83198 4.42966 8.74995 4.5445L6.20426 8.37261L5.03122 7.2023C4.92731 7.0984 4.807 7.04918 4.67302 7.05465C4.5363 7.06012 4.41872 7.10933 4.31482 7.2023C4.22185 7.29527 4.17537 7.41285 4.17537 7.55503C4.17537 7.69449 4.22185 7.81206 4.31482 7.90777L5.92536 9.5183L6.00465 9.58119C6.09762 9.64408 6.19332 9.67416 6.28629 9.67416C6.46949 9.67143 6.60895 9.59487 6.70191 9.43627Z" fill="#1DA1F2"/>
</svg>
