<svg width="579" height="187" viewBox="0 0 579 187" fill="none" xmlns="http://www.w3.org/2000/svg">
<mask id="mask0_2684_6773" style="mask-type:alpha" maskUnits="userSpaceOnUse" x="0" y="-241" width="579" height="428">
<path d="M0 -221C0 -232.046 8.95431 -241 20 -241H559C570.046 -241 579 -232.046 579 -221V167C579 178.046 570.046 187 559 187H20C8.95431 187 0 178.046 0 167V-221Z" fill="white"/>
</mask>
<g mask="url(#mask0_2684_6773)">
<g opacity="0.8">
<rect x="-13" y="0.00012207" width="139.355" height="114.707" rx="4.77947" fill="#F8A61B" fill-opacity="0.12"/>
<g clip-path="url(#clip0_2684_6773)">
<path d="M52.4768 55.4418C53.2687 55.4418 53.9107 54.7998 53.9107 54.0079C53.9107 53.216 53.2687 52.5741 52.4768 52.5741C51.6849 52.5741 51.043 53.216 51.043 54.0079C51.043 54.7998 51.6849 55.4418 52.4768 55.4418Z" stroke="#F8A61B" stroke-width="1.91179" stroke-linecap="round" stroke-linejoin="round"/>
<path d="M68.2483 55.4418C69.0402 55.4418 69.6821 54.7998 69.6821 54.0079C69.6821 53.216 69.0402 52.5741 68.2483 52.5741C67.4564 52.5741 66.8145 53.216 66.8145 54.0079C66.8145 54.7998 67.4564 55.4418 68.2483 55.4418Z" stroke="#F8A61B" stroke-width="1.91179" stroke-linecap="round" stroke-linejoin="round"/>
<path d="M41.0059 25.3311H46.7412L50.5839 44.5303C50.715 45.1904 51.0742 45.7834 51.5984 46.2054C52.1227 46.6274 52.7787 46.8516 53.4516 46.8387H67.3885C68.0614 46.8516 68.7175 46.6274 69.2417 46.2054C69.766 45.7834 70.1251 45.1904 70.2562 44.5303L72.5504 32.5003H48.1751" stroke="#F8A61B" stroke-width="1.91179" stroke-linecap="round" stroke-linejoin="round"/>
</g>
<path d="M12.0891 81.272V83.6732H16.6009V85.692H9.97851V74.986H16.5245V77.0048H12.0891V79.2837H16.1421V81.272H12.0891ZM23.824 82.0214H18.0887V80.1249H23.824V82.0214ZM33.1824 85.9061C32.0302 85.9061 31.0667 85.5187 30.2917 84.7438C29.527 83.9689 29.1447 83.0104 29.1447 81.8684C29.1447 80.7265 29.527 79.768 30.2917 78.9931C31.0667 78.2182 32.0302 77.8307 33.1824 77.8307C33.9267 77.8307 34.6047 78.0092 35.2165 78.366C35.8283 78.7229 36.2922 79.2021 36.6083 79.8037L34.9106 80.7978C34.7577 80.4818 34.5232 80.2319 34.2071 80.0484C33.9012 79.8649 33.5545 79.7731 33.1671 79.7731C32.5757 79.7731 32.0863 79.9719 31.6988 80.3696C31.3114 80.7571 31.1176 81.2567 31.1176 81.8684C31.1176 82.4598 31.3114 82.9594 31.6988 83.3673C32.0863 83.7547 32.5757 83.9485 33.1671 83.9485C33.5647 83.9485 33.9165 83.8618 34.2224 83.6885C34.5385 83.5049 34.773 83.2551 34.9259 82.939L36.6389 83.9179C36.3024 84.5296 35.8232 85.014 35.2012 85.3708C34.5894 85.7277 33.9165 85.9061 33.1824 85.9061ZM44.0782 84.7438C43.3033 85.5187 42.3449 85.9061 41.2029 85.9061C40.0609 85.9061 39.1025 85.5187 38.3276 84.7438C37.5527 83.9689 37.1652 83.0104 37.1652 81.8684C37.1652 80.7367 37.5527 79.7833 38.3276 79.0084C39.1127 78.2233 40.0711 77.8307 41.2029 77.8307C42.3347 77.8307 43.2931 78.2233 44.0782 79.0084C44.8634 79.7935 45.2559 80.7469 45.2559 81.8684C45.2559 83.0002 44.8634 83.9587 44.0782 84.7438ZM39.7194 83.3826C40.117 83.7802 40.6115 83.9791 41.2029 83.9791C41.7943 83.9791 42.2888 83.7802 42.6865 83.3826C43.0841 82.9849 43.2829 82.4802 43.2829 81.8684C43.2829 81.2567 43.0841 80.752 42.6865 80.3543C42.2888 79.9566 41.7943 79.7578 41.2029 79.7578C40.6115 79.7578 40.117 79.9566 39.7194 80.3543C39.3319 80.7622 39.1382 81.2669 39.1382 81.8684C39.1382 82.47 39.3319 82.9747 39.7194 83.3826ZM55.1016 77.8307C55.9785 77.8307 56.6769 78.1162 57.1969 78.6872C57.7271 79.2582 57.9922 80.0229 57.9922 80.9814V85.692H56.0193V81.119C56.0193 80.6602 55.9071 80.3033 55.6828 80.0484C55.4585 79.7935 55.1424 79.6661 54.7346 79.6661C54.2859 79.6661 53.9342 79.8139 53.6792 80.1096C53.4345 80.4053 53.3122 80.8335 53.3122 81.3943V85.692H51.3392V81.119C51.3392 80.6602 51.2271 80.3033 51.0027 80.0484C50.7784 79.7935 50.4623 79.6661 50.0545 79.6661C49.6161 79.6661 49.2643 79.819 48.9992 80.1249C48.7443 80.4206 48.6168 80.8437 48.6168 81.3943V85.692H46.6439V78.0449H48.6168V78.8555C49.0757 78.1723 49.7843 77.8307 50.7427 77.8307C51.691 77.8307 52.3843 78.1978 52.8228 78.9319C53.3224 78.1978 54.082 77.8307 55.1016 77.8307ZM68.1257 77.8307C69.0026 77.8307 69.701 78.1162 70.221 78.6872C70.7512 79.2582 71.0163 80.0229 71.0163 80.9814V85.692H69.0433V81.119C69.0433 80.6602 68.9312 80.3033 68.7069 80.0484C68.4825 79.7935 68.1665 79.6661 67.7586 79.6661C67.31 79.6661 66.9582 79.8139 66.7033 80.1096C66.4586 80.4053 66.3362 80.8335 66.3362 81.3943V85.692H64.3633V81.119C64.3633 80.6602 64.2511 80.3033 64.0268 80.0484C63.8025 79.7935 63.4864 79.6661 63.0786 79.6661C62.6401 79.6661 62.2884 79.819 62.0233 80.1249C61.7683 80.4206 61.6409 80.8437 61.6409 81.3943V85.692H59.6679V78.0449H61.6409V78.8555C62.0997 78.1723 62.8084 77.8307 63.7668 77.8307C64.7151 77.8307 65.4084 78.1978 65.8468 78.9319C66.3464 78.1978 67.1061 77.8307 68.1257 77.8307ZM80.125 82.679H74.3591C74.614 83.6375 75.3328 84.1167 76.5156 84.1167C77.2701 84.1167 77.8411 83.8618 78.2285 83.352L79.8191 84.2696C79.0646 85.3606 77.9532 85.9061 76.485 85.9061C75.2206 85.9061 74.2061 85.5238 73.4414 84.7591C72.6767 83.9943 72.2943 83.0308 72.2943 81.8684C72.2943 80.7265 72.6716 79.768 73.4261 78.9931C74.1704 78.2182 75.1391 77.8307 76.332 77.8307C77.4638 77.8307 78.3866 78.2182 79.1003 78.9931C79.8344 79.768 80.2015 80.7265 80.2015 81.8684C80.2015 82.0826 80.176 82.3528 80.125 82.679ZM74.3285 81.1496H78.2285C78.1164 80.65 77.887 80.2676 77.5403 80.0025C77.2038 79.7374 76.8011 79.6049 76.332 79.6049C75.8018 79.6049 75.3634 79.7425 75.0167 80.0178C74.6701 80.2829 74.4406 80.6602 74.3285 81.1496ZM83.5518 78.0449V79.3602C83.7251 78.8809 84.0208 78.519 84.4389 78.2743C84.8569 78.0194 85.3361 77.8919 85.8765 77.8919V80.0943C85.2749 80.0127 84.7345 80.1351 84.2553 80.4614C83.7863 80.7774 83.5518 81.3025 83.5518 82.0367V85.692H81.5788V78.0449H83.5518ZM90.3867 85.9061C89.2345 85.9061 88.271 85.5187 87.496 84.7438C86.7313 83.9689 86.349 83.0104 86.349 81.8684C86.349 80.7265 86.7313 79.768 87.496 78.9931C88.271 78.2182 89.2345 77.8307 90.3867 77.8307C91.131 77.8307 91.809 78.0092 92.4208 78.366C93.0326 78.7229 93.4965 79.2021 93.8126 79.8037L92.1149 80.7978C91.962 80.4818 91.7275 80.2319 91.4114 80.0484C91.1055 79.8649 90.7588 79.7731 90.3714 79.7731C89.78 79.7731 89.2906 79.9719 88.9031 80.3696C88.5157 80.7571 88.3219 81.2567 88.3219 81.8684C88.3219 82.4598 88.5157 82.9594 88.9031 83.3673C89.2906 83.7547 89.78 83.9485 90.3714 83.9485C90.769 83.9485 91.1208 83.8618 91.4267 83.6885C91.7428 83.5049 91.9773 83.2551 92.1302 82.939L93.8432 83.9179C93.5067 84.5296 93.0275 85.014 92.4055 85.3708C91.7937 85.7277 91.1208 85.9061 90.3867 85.9061ZM102.2 82.679H96.4343C96.6892 83.6375 97.408 84.1167 98.5908 84.1167C99.3453 84.1167 99.9163 83.8618 100.304 83.352L101.894 84.2696C101.14 85.3606 100.028 85.9061 98.5602 85.9061C97.2958 85.9061 96.2813 85.5238 95.5166 84.7591C94.7519 83.9943 94.3695 83.0308 94.3695 81.8684C94.3695 80.7265 94.7468 79.768 95.5013 78.9931C96.2456 78.2182 97.2143 77.8307 98.4072 77.8307C99.539 77.8307 100.462 78.2182 101.175 78.9931C101.91 79.768 102.277 80.7265 102.277 81.8684C102.277 82.0826 102.251 82.3528 102.2 82.679ZM96.4037 81.1496H100.304C100.192 80.65 99.9621 80.2676 99.6155 80.0025C99.279 79.7374 98.8763 79.6049 98.4072 79.6049C97.877 79.6049 97.4386 79.7425 97.0919 80.0178C96.7452 80.2829 96.5158 80.6602 96.4037 81.1496Z" fill="#F8A61B"/>
<rect x="140.898" width="139.355" height="114.707" rx="4.77947" fill="#23CF5F" fill-opacity="0.12"/>
<path d="M201.891 80.1402C202.829 80.6806 203.298 81.4963 203.298 82.5873C203.298 83.4947 202.977 84.2391 202.335 84.8202C201.693 85.4014 200.902 85.692 199.964 85.692H195.422V74.986H199.643C200.551 74.986 201.32 75.2715 201.953 75.8425C202.585 76.4135 202.901 77.1323 202.901 77.999C202.901 78.886 202.564 79.5998 201.891 80.1402ZM199.643 76.959H197.532V79.3143H199.643C199.969 79.3143 200.24 79.2021 200.454 78.9778C200.678 78.7535 200.79 78.4731 200.79 78.1366C200.79 77.8002 200.683 77.5198 200.469 77.2954C200.255 77.0711 199.98 76.959 199.643 76.959ZM197.532 83.7191H199.964C200.321 83.7191 200.617 83.6018 200.851 83.3673C201.086 83.1226 201.203 82.8167 201.203 82.4496C201.203 82.0928 201.086 81.7971 200.851 81.5626C200.617 81.3178 200.321 81.1955 199.964 81.1955H197.532V83.7191ZM206.563 85.692H204.59V74.5272H206.563V85.692ZM214.884 84.7438C214.11 85.5187 213.151 85.9061 212.009 85.9061C210.867 85.9061 209.909 85.5187 209.134 84.7438C208.359 83.9689 207.971 83.0104 207.971 81.8684C207.971 80.7367 208.359 79.7833 209.134 79.0084C209.919 78.2233 210.877 77.8307 212.009 77.8307C213.141 77.8307 214.099 78.2233 214.884 79.0084C215.67 79.7935 216.062 80.7469 216.062 81.8684C216.062 83.0002 215.67 83.9587 214.884 84.7438ZM210.526 83.3826C210.923 83.7802 211.418 83.9791 212.009 83.9791C212.601 83.9791 213.095 83.7802 213.493 83.3826C213.89 82.9849 214.089 82.4802 214.089 81.8684C214.089 81.2567 213.89 80.752 213.493 80.3543C213.095 79.9566 212.601 79.7578 212.009 79.7578C211.418 79.7578 210.923 79.9566 210.526 80.3543C210.138 80.7622 209.944 81.2669 209.944 81.8684C209.944 82.47 210.138 82.9747 210.526 83.3826ZM223.308 78.9931V78.0449H225.235V85.325C225.235 86.4975 224.842 87.3999 224.057 88.032C223.282 88.654 222.344 88.965 221.243 88.965C219.51 88.965 218.301 88.343 217.618 87.0991L219.301 86.1356C219.678 86.8493 220.346 87.2062 221.304 87.2062C221.926 87.2062 222.416 87.043 222.773 86.7167C223.129 86.3905 223.308 85.9265 223.308 85.325V84.4991C222.727 85.274 221.911 85.6614 220.861 85.6614C219.78 85.6614 218.872 85.2842 218.138 84.5296C217.414 83.7547 217.052 82.8269 217.052 81.7461C217.052 80.6653 217.42 79.7425 218.154 78.9778C218.888 78.2131 219.79 77.8307 220.861 77.8307C221.911 77.8307 222.727 78.2182 223.308 78.9931ZM222.696 83.2602C223.104 82.8626 223.308 82.3579 223.308 81.7461C223.308 81.1343 223.104 80.6398 222.696 80.2625C222.298 79.8649 221.789 79.6661 221.167 79.6661C220.555 79.6661 220.04 79.8649 219.622 80.2625C219.224 80.6398 219.025 81.1343 219.025 81.7461C219.025 82.3579 219.224 82.8626 219.622 83.2602C220.03 83.6477 220.545 83.8414 221.167 83.8414C221.789 83.8414 222.298 83.6477 222.696 83.2602Z" fill="#23CF5F"/>
<path d="M217.64 28.1988C218.017 27.8222 218.464 27.5235 218.956 27.3197C219.448 27.1159 219.976 27.011 220.508 27.011C221.041 27.011 221.568 27.1159 222.06 27.3197C222.552 27.5235 222.999 27.8222 223.376 28.1988C223.752 28.5754 224.051 29.0225 224.255 29.5145C224.459 30.0066 224.564 30.5339 224.564 31.0665C224.564 31.5991 224.459 32.1264 224.255 32.6185C224.051 33.1105 223.752 33.5576 223.376 33.9342L204.019 53.291L196.133 55.4418L198.284 47.5557L217.64 28.1988Z" stroke="#23CF5F" stroke-width="1.91179" stroke-linecap="round" stroke-linejoin="round"/>
<rect x="294.797" width="139.355" height="114.707" rx="4.77947" fill="#EE4637" fill-opacity="0.12"/>
<path d="M321.303 74.986H323.475V85.692H321.379V78.7484L318.366 83.7191H318.122L315.109 78.7637V85.692H312.998V74.986H315.17L318.244 80.0484L321.303 74.986ZM331.893 84.7438C331.118 85.5187 330.16 85.9061 329.018 85.9061C327.876 85.9061 326.917 85.5187 326.142 84.7438C325.368 83.9689 324.98 83.0104 324.98 81.8684C324.98 80.7367 325.368 79.7833 326.142 79.0084C326.928 78.2233 327.886 77.8307 329.018 77.8307C330.15 77.8307 331.108 78.2233 331.893 79.0084C332.678 79.7935 333.071 80.7469 333.071 81.8684C333.071 83.0002 332.678 83.9587 331.893 84.7438ZM327.534 83.3826C327.932 83.7802 328.426 83.9791 329.018 83.9791C329.609 83.9791 330.104 83.7802 330.501 83.3826C330.899 82.9849 331.098 82.4802 331.098 81.8684C331.098 81.2567 330.899 80.752 330.501 80.3543C330.104 79.9566 329.609 79.7578 329.018 79.7578C328.426 79.7578 327.932 79.9566 327.534 80.3543C327.147 80.7622 326.953 81.2669 326.953 81.8684C326.953 82.47 327.147 82.9747 327.534 83.3826ZM337.326 83.3979L339.192 78.0449H341.364L338.458 85.692H336.209L333.304 78.0449H335.475L337.326 83.3979ZM343.294 77.1272C342.968 77.1272 342.682 77.0099 342.437 76.7754C342.203 76.5307 342.086 76.2452 342.086 75.919C342.086 75.5927 342.203 75.3072 342.437 75.0625C342.682 74.8178 342.968 74.6954 343.294 74.6954C343.63 74.6954 343.916 74.8178 344.15 75.0625C344.395 75.3072 344.517 75.5927 344.517 75.919C344.517 76.2452 344.395 76.5307 344.15 76.7754C343.916 77.0099 343.63 77.1272 343.294 77.1272ZM344.288 85.692H342.315V78.0449H344.288V85.692ZM353.527 82.679H347.761C348.016 83.6375 348.735 84.1167 349.917 84.1167C350.672 84.1167 351.243 83.8618 351.63 83.352L353.221 84.2696C352.466 85.3606 351.355 85.9061 349.887 85.9061C348.622 85.9061 347.608 85.5238 346.843 84.7591C346.078 83.9943 345.696 83.0308 345.696 81.8684C345.696 80.7265 346.073 79.768 346.828 78.9931C347.572 78.2182 348.541 77.8307 349.734 77.8307C350.866 77.8307 351.788 78.2182 352.502 78.9931C353.236 79.768 353.603 80.7265 353.603 81.8684C353.603 82.0826 353.578 82.3528 353.527 82.679ZM347.73 81.1496H351.63C351.518 80.65 351.289 80.2676 350.942 80.0025C350.606 79.7374 350.203 79.6049 349.734 79.6049C349.204 79.6049 348.765 79.7425 348.418 80.0178C348.072 80.2829 347.842 80.6602 347.73 81.1496ZM365.365 80.1402C366.303 80.6806 366.772 81.4963 366.772 82.5873C366.772 83.4947 366.451 84.2391 365.809 84.8202C365.167 85.4014 364.376 85.692 363.438 85.692H358.896V74.986H363.117C364.025 74.986 364.794 75.2715 365.427 75.8425C366.059 76.4135 366.375 77.1323 366.375 77.999C366.375 78.886 366.038 79.5998 365.365 80.1402ZM363.117 76.959H361.007V79.3143H363.117C363.443 79.3143 363.714 79.2021 363.928 78.9778C364.152 78.7535 364.264 78.4731 364.264 78.1366C364.264 77.8002 364.157 77.5198 363.943 77.2954C363.729 77.0711 363.454 76.959 363.117 76.959ZM361.007 83.7191H363.438C363.795 83.7191 364.091 83.6018 364.325 83.3673C364.56 83.1226 364.677 82.8167 364.677 82.4496C364.677 82.0928 364.56 81.7971 364.325 81.5626C364.091 81.3178 363.795 81.1955 363.438 81.1955H361.007V83.7191ZM374.699 84.7438C373.924 85.5187 372.966 85.9061 371.824 85.9061C370.682 85.9061 369.723 85.5187 368.949 84.7438C368.174 83.9689 367.786 83.0104 367.786 81.8684C367.786 80.7367 368.174 79.7833 368.949 79.0084C369.734 78.2233 370.692 77.8307 371.824 77.8307C372.956 77.8307 373.914 78.2233 374.699 79.0084C375.484 79.7935 375.877 80.7469 375.877 81.8684C375.877 83.0002 375.484 83.9587 374.699 84.7438ZM370.34 83.3826C370.738 83.7802 371.233 83.9791 371.824 83.9791C372.415 83.9791 372.91 83.7802 373.307 83.3826C373.705 82.9849 373.904 82.4802 373.904 81.8684C373.904 81.2567 373.705 80.752 373.307 80.3543C372.91 79.9566 372.415 79.7578 371.824 79.7578C371.233 79.7578 370.738 79.9566 370.34 80.3543C369.953 80.7622 369.759 81.2669 369.759 81.8684C369.759 82.47 369.953 82.9747 370.34 83.3826ZM383.78 84.7438C383.005 85.5187 382.047 85.9061 380.905 85.9061C379.763 85.9061 378.804 85.5187 378.03 84.7438C377.255 83.9689 376.867 83.0104 376.867 81.8684C376.867 80.7367 377.255 79.7833 378.03 79.0084C378.815 78.2233 379.773 77.8307 380.905 77.8307C382.037 77.8307 382.995 78.2233 383.78 79.0084C384.565 79.7935 384.958 80.7469 384.958 81.8684C384.958 83.0002 384.565 83.9587 383.78 84.7438ZM379.421 83.3826C379.819 83.7802 380.314 83.9791 380.905 83.9791C381.496 83.9791 381.991 83.7802 382.388 83.3826C382.786 82.9849 382.985 82.4802 382.985 81.8684C382.985 81.2567 382.786 80.752 382.388 80.3543C381.991 79.9566 381.496 79.7578 380.905 79.7578C380.314 79.7578 379.819 79.9566 379.421 80.3543C379.034 80.7622 378.84 81.2669 378.84 81.8684C378.84 82.47 379.034 82.9747 379.421 83.3826ZM390.231 81.8226L393.397 85.692H391.102L388.319 82.2202V85.692H386.346V74.986H388.319V81.4096L390.949 78.0449H393.305L390.231 81.8226ZM395.36 77.1272C395.034 77.1272 394.748 77.0099 394.504 76.7754C394.269 76.5307 394.152 76.2452 394.152 75.919C394.152 75.5927 394.269 75.3072 394.504 75.0625C394.748 74.8178 395.034 74.6954 395.36 74.6954C395.697 74.6954 395.982 74.8178 396.217 75.0625C396.461 75.3072 396.584 75.5927 396.584 75.919C396.584 76.2452 396.461 76.5307 396.217 76.7754C395.982 77.0099 395.697 77.1272 395.36 77.1272ZM396.354 85.692H394.381V78.0449H396.354V85.692ZM402.412 77.8307C403.258 77.8307 403.946 78.1111 404.477 78.6719C405.027 79.2429 405.303 80.0178 405.303 80.9967V85.692H403.33V81.2414C403.33 80.7418 403.192 80.3543 402.917 80.079C402.652 79.8037 402.284 79.6661 401.815 79.6661C401.295 79.6661 400.882 79.8292 400.577 80.1555C400.281 80.4716 400.133 80.9406 400.133 81.5626V85.692H398.16V78.0449H400.133V78.9013C400.602 78.1876 401.362 77.8307 402.412 77.8307ZM412.845 78.9931V78.0449H414.772V85.325C414.772 86.4975 414.379 87.3999 413.594 88.032C412.819 88.654 411.881 88.965 410.78 88.965C409.047 88.965 407.839 88.343 407.155 87.0991L408.838 86.1356C409.215 86.8493 409.883 87.2062 410.841 87.2062C411.463 87.2062 411.953 87.043 412.31 86.7167C412.666 86.3905 412.845 85.9265 412.845 85.325V84.4991C412.264 85.274 411.448 85.6614 410.398 85.6614C409.317 85.6614 408.41 85.2842 407.675 84.5296C406.952 83.7547 406.59 82.8269 406.59 81.7461C406.59 80.6653 406.957 79.7425 407.691 78.9778C408.425 78.2131 409.327 77.8307 410.398 77.8307C411.448 77.8307 412.264 78.2182 412.845 78.9931ZM412.233 83.2602C412.641 82.8626 412.845 82.3579 412.845 81.7461C412.845 81.1343 412.641 80.6398 412.233 80.2625C411.835 79.8649 411.326 79.6661 410.704 79.6661C410.092 79.6661 409.577 79.8649 409.159 80.2625C408.761 80.6398 408.563 81.1343 408.563 81.7461C408.563 82.3579 408.761 82.8626 409.159 83.2602C409.567 83.6477 410.082 83.8414 410.704 83.8414C411.326 83.8414 411.835 83.6477 412.233 83.2602Z" fill="#EE4637"/>
<path d="M375.789 26.765H353.364C351.638 26.765 350.238 28.1644 350.238 29.8907V52.316C350.238 54.0423 351.638 55.4418 353.364 55.4418H375.789C377.516 55.4418 378.915 54.0423 378.915 52.316V29.8907C378.915 28.1644 377.516 26.765 375.789 26.765Z" stroke="#EE4637" stroke-width="0.955894" stroke-linecap="round" stroke-linejoin="round"/>
<path d="M357.408 26.765V55.4418" stroke="#EE4637" stroke-width="0.955894" stroke-linecap="round" stroke-linejoin="round"/>
<path d="M371.746 26.765V55.4418" stroke="#EE4637" stroke-width="0.955894" stroke-linecap="round" stroke-linejoin="round"/>
<path d="M350.238 41.1033H378.915" stroke="#EE4637" stroke-width="0.955894" stroke-linecap="round" stroke-linejoin="round"/>
<path d="M350.238 33.9341H357.407" stroke="#EE4637" stroke-width="0.955894" stroke-linecap="round" stroke-linejoin="round"/>
<path d="M350.238 48.2726H357.407" stroke="#EE4637" stroke-width="0.955894" stroke-linecap="round" stroke-linejoin="round"/>
<path d="M371.746 48.2726H378.915" stroke="#EE4637" stroke-width="0.955894" stroke-linecap="round" stroke-linejoin="round"/>
<path d="M371.746 33.9341H378.915" stroke="#EE4637" stroke-width="0.955894" stroke-linecap="round" stroke-linejoin="round"/>
<rect x="448.695" y="0.00012207" width="139.355" height="114.707" rx="4.77947" fill="#3A76F0" fill-opacity="0.12"/>
<path d="M532.813 26.765L517.041 42.5372" stroke="#3A76F0" stroke-width="1.91179" stroke-linecap="round" stroke-linejoin="round"/>
<path d="M532.814 26.765L522.777 55.4418L517.041 42.5372L504.137 36.8018L532.814 26.765Z" stroke="#3A76F0" stroke-width="1.91179" stroke-linecap="round" stroke-linejoin="round"/>
<path d="M474.245 74.986V77.0048H469.962V79.5437H474.122V81.5626H469.962V85.692H467.852V74.986H474.245ZM477.664 85.692H475.691V74.5272H477.664V85.692ZM480.448 77.1272C480.122 77.1272 479.837 77.0099 479.592 76.7754C479.357 76.5307 479.24 76.2452 479.24 75.919C479.24 75.5927 479.357 75.3072 479.592 75.0625C479.837 74.8178 480.122 74.6954 480.448 74.6954C480.785 74.6954 481.07 74.8178 481.305 75.0625C481.55 75.3072 481.672 75.5927 481.672 75.919C481.672 76.2452 481.55 76.5307 481.305 76.7754C481.07 77.0099 480.785 77.1272 480.448 77.1272ZM481.442 85.692H479.469V78.0449H481.442V85.692ZM489.106 78.9931V78.0449H491.033V85.325C491.033 86.4975 490.641 87.3999 489.855 88.032C489.08 88.654 488.142 88.965 487.041 88.965C485.308 88.965 484.1 88.343 483.417 87.0991L485.099 86.1356C485.476 86.8493 486.144 87.2062 487.102 87.2062C487.724 87.2062 488.214 87.043 488.571 86.7167C488.928 86.3905 489.106 85.9265 489.106 85.325V84.4991C488.525 85.274 487.709 85.6614 486.659 85.6614C485.578 85.6614 484.671 85.2842 483.937 84.5296C483.213 83.7547 482.851 82.8269 482.851 81.7461C482.851 80.6653 483.218 79.7425 483.952 78.9778C484.686 78.2131 485.588 77.8307 486.659 77.8307C487.709 77.8307 488.525 78.2182 489.106 78.9931ZM488.494 83.2602C488.902 82.8626 489.106 82.3579 489.106 81.7461C489.106 81.1343 488.902 80.6398 488.494 80.2625C488.097 79.8649 487.587 79.6661 486.965 79.6661C486.353 79.6661 485.838 79.8649 485.42 80.2625C485.022 80.6398 484.824 81.1343 484.824 81.7461C484.824 82.3579 485.022 82.8626 485.42 83.2602C485.828 83.6477 486.343 83.8414 486.965 83.8414C487.587 83.8414 488.097 83.6477 488.494 83.2602ZM497.074 77.8307C497.92 77.8307 498.608 78.1111 499.139 78.6719C499.689 79.2429 499.965 80.0178 499.965 80.9967V85.692H497.992V81.2414C497.992 80.7418 497.854 80.3543 497.579 80.079C497.314 79.8037 496.947 79.6661 496.477 79.6661C495.957 79.6661 495.545 79.8292 495.239 80.1555C494.943 80.4716 494.795 80.9406 494.795 81.5626V85.692H492.822V74.986H494.795V78.9013C495.264 78.1876 496.024 77.8307 497.074 77.8307ZM506.023 78.0449V79.9414H504.295V83.1226C504.295 83.3877 504.361 83.5814 504.494 83.7038C504.627 83.8261 504.82 83.8975 505.075 83.9179C505.33 83.9281 505.646 83.923 506.023 83.9026V85.692C504.688 85.845 503.734 85.7226 503.163 85.325C502.603 84.9171 502.322 84.183 502.322 83.1226V79.9414H500.992V78.0449H502.322V76.5001L504.295 75.9037V78.0449H506.023ZM517.919 80.1402C518.857 80.6806 519.326 81.4963 519.326 82.5873C519.326 83.4947 519.005 84.2391 518.362 84.8202C517.72 85.4014 516.93 85.692 515.992 85.692H511.449V74.986H515.671C516.578 74.986 517.348 75.2715 517.98 75.8425C518.612 76.4135 518.928 77.1323 518.928 77.999C518.928 78.886 518.592 79.5998 517.919 80.1402ZM515.671 76.959H513.56V79.3143H515.671C515.997 79.3143 516.267 79.2021 516.481 78.9778C516.705 78.7535 516.818 78.4731 516.818 78.1366C516.818 77.8002 516.711 77.5198 516.496 77.2954C516.282 77.0711 516.007 76.959 515.671 76.959ZM513.56 83.7191H515.992C516.349 83.7191 516.644 83.6018 516.879 83.3673C517.113 83.1226 517.231 82.8167 517.231 82.4496C517.231 82.0928 517.113 81.7971 516.879 81.5626C516.644 81.3178 516.349 81.1955 515.992 81.1955H513.56V83.7191ZM527.253 84.7438C526.478 85.5187 525.519 85.9061 524.377 85.9061C523.235 85.9061 522.277 85.5187 521.502 84.7438C520.727 83.9689 520.34 83.0104 520.34 81.8684C520.34 80.7367 520.727 79.7833 521.502 79.0084C522.287 78.2233 523.246 77.8307 524.377 77.8307C525.509 77.8307 526.468 78.2233 527.253 79.0084C528.038 79.7935 528.43 80.7469 528.43 81.8684C528.43 83.0002 528.038 83.9587 527.253 84.7438ZM522.894 83.3826C523.291 83.7802 523.786 83.9791 524.377 83.9791C524.969 83.9791 525.463 83.7802 525.861 83.3826C526.258 82.9849 526.457 82.4802 526.457 81.8684C526.457 81.2567 526.258 80.752 525.861 80.3543C525.463 79.9566 524.969 79.7578 524.377 79.7578C523.786 79.7578 523.291 79.9566 522.894 80.3543C522.506 80.7622 522.313 81.2669 522.313 81.8684C522.313 82.47 522.506 82.9747 522.894 83.3826ZM536.334 84.7438C535.559 85.5187 534.6 85.9061 533.458 85.9061C532.316 85.9061 531.358 85.5187 530.583 84.7438C529.808 83.9689 529.421 83.0104 529.421 81.8684C529.421 80.7367 529.808 79.7833 530.583 79.0084C531.368 78.2233 532.327 77.8307 533.458 77.8307C534.59 77.8307 535.549 78.2233 536.334 79.0084C537.119 79.7935 537.511 80.7469 537.511 81.8684C537.511 83.0002 537.119 83.9587 536.334 84.7438ZM531.975 83.3826C532.372 83.7802 532.867 83.9791 533.458 83.9791C534.05 83.9791 534.544 83.7802 534.942 83.3826C535.339 82.9849 535.538 82.4802 535.538 81.8684C535.538 81.2567 535.339 80.752 534.942 80.3543C534.544 79.9566 534.05 79.7578 533.458 79.7578C532.867 79.7578 532.372 79.9566 531.975 80.3543C531.587 80.7622 531.394 81.2669 531.394 81.8684C531.394 82.47 531.587 82.9747 531.975 83.3826ZM542.784 81.8226L545.95 85.692H543.656L540.872 82.2202V85.692H538.899V74.986H540.872V81.4096L543.503 78.0449H545.858L542.784 81.8226ZM547.914 77.1272C547.587 77.1272 547.302 77.0099 547.057 76.7754C546.823 76.5307 546.705 76.2452 546.705 75.919C546.705 75.5927 546.823 75.3072 547.057 75.0625C547.302 74.8178 547.587 74.6954 547.914 74.6954C548.25 74.6954 548.536 74.8178 548.77 75.0625C549.015 75.3072 549.137 75.5927 549.137 75.919C549.137 76.2452 549.015 76.5307 548.77 76.7754C548.536 77.0099 548.25 77.1272 547.914 77.1272ZM548.908 85.692H546.935V78.0449H548.908V85.692ZM554.965 77.8307C555.812 77.8307 556.5 78.1111 557.03 78.6719C557.581 79.2429 557.856 80.0178 557.856 80.9967V85.692H555.883V81.2414C555.883 80.7418 555.745 80.3543 555.47 80.079C555.205 79.8037 554.838 79.6661 554.369 79.6661C553.849 79.6661 553.436 79.8292 553.13 80.1555C552.834 80.4716 552.686 80.9406 552.686 81.5626V85.692H550.713V78.0449H552.686V78.9013C553.155 78.1876 553.915 77.8307 554.965 77.8307ZM565.398 78.9931V78.0449H567.325V85.325C567.325 86.4975 566.933 87.3999 566.148 88.032C565.373 88.654 564.435 88.965 563.334 88.965C561.6 88.965 560.392 88.343 559.709 87.0991L561.391 86.1356C561.768 86.8493 562.436 87.2062 563.395 87.2062C564.017 87.2062 564.506 87.043 564.863 86.7167C565.22 86.3905 565.398 85.9265 565.398 85.325V84.4991C564.817 85.274 564.001 85.6614 562.951 85.6614C561.87 85.6614 560.963 85.2842 560.229 84.5296C559.505 83.7547 559.143 82.8269 559.143 81.7461C559.143 80.6653 559.51 79.7425 560.244 78.9778C560.978 78.2131 561.881 77.8307 562.951 77.8307C564.001 77.8307 564.817 78.2182 565.398 78.9931ZM564.787 83.2602C565.194 82.8626 565.398 82.3579 565.398 81.7461C565.398 81.1343 565.194 80.6398 564.787 80.2625C564.389 79.8649 563.879 79.6661 563.257 79.6661C562.645 79.6661 562.13 79.8649 561.712 80.2625C561.315 80.6398 561.116 81.1343 561.116 81.7461C561.116 82.3579 561.315 82.8626 561.712 83.2602C562.12 83.6477 562.635 83.8414 563.257 83.8414C563.879 83.8414 564.389 83.6477 564.787 83.2602Z" fill="#3A76F0"/>
<rect x="16.6309" y="129.046" width="139.355" height="114.707" rx="4.77947" fill="#36C5F0" fill-opacity="0.12"/>
<path d="M72.0703 157.245H80.6734C82.1945 157.245 83.6533 157.849 84.7289 158.925C85.8045 160 86.4087 161.459 86.4087 162.98V183.054C86.4087 181.913 85.9555 180.819 85.1488 180.012C84.3422 179.206 83.248 178.752 82.1072 178.752H72.0703V157.245Z" stroke="#36C5F0" stroke-width="1.91179" stroke-linecap="round" stroke-linejoin="round"/>
<path d="M100.749 157.245H92.1455C90.6244 157.245 89.1656 157.849 88.09 158.925C87.0144 160 86.4102 161.459 86.4102 162.98V183.054C86.4102 181.913 86.8634 180.819 87.67 180.012C88.4767 179.206 89.5708 178.752 90.7117 178.752H100.749V157.245Z" stroke="#36C5F0" stroke-width="1.91179" stroke-linecap="round" stroke-linejoin="round"/>
<rect x="170.531" y="129.046" width="139.355" height="114.707" rx="4.77947" fill="#FD922D" fill-opacity="0.12"/>
<g clip-path="url(#clip1_2684_6773)">
<path d="M253.216 158.679H227.407C225.823 158.679 224.539 159.963 224.539 161.546V178.752C224.539 180.336 225.823 181.62 227.407 181.62H253.216C254.8 181.62 256.084 180.336 256.084 178.752V161.546C256.084 159.963 254.8 158.679 253.216 158.679Z" stroke="#FD922D" stroke-width="1.91179" stroke-linecap="round" stroke-linejoin="round"/>
<path d="M224.539 167.282H256.084" stroke="#FD922D" stroke-width="1.91179" stroke-linecap="round" stroke-linejoin="round"/>
</g>
<rect x="324.43" y="129.046" width="139.355" height="114.707" rx="4.77947" fill="#4EF5CD" fill-opacity="0.12"/>
<path d="M384.175 177.319H382.741C381.98 177.319 381.251 177.017 380.713 176.479C380.175 175.941 379.873 175.212 379.873 174.451V160.113C379.873 159.352 380.175 158.623 380.713 158.085C381.251 157.547 381.98 157.245 382.741 157.245H405.682C406.443 157.245 407.172 157.547 407.71 158.085C408.248 158.623 408.55 159.352 408.55 160.113V174.451C408.55 175.212 408.248 175.941 407.71 176.479C407.172 177.017 406.443 177.319 405.682 177.319H404.248" stroke="#4EF5CD" stroke-width="1.91179" stroke-linecap="round" stroke-linejoin="round"/>
<path d="M394.21 174.451L401.379 183.054H387.041L394.21 174.451Z" stroke="#4EF5CD" stroke-width="1.91179" stroke-linecap="round" stroke-linejoin="round"/>
<rect x="478.328" y="129.046" width="139.355" height="114.707" rx="4.77947" fill="#ECB22E" fill-opacity="0.12"/>
<path d="M543.807 178.752V160.113L561.013 157.245V175.885" stroke="#ECB22E" stroke-width="1.91179" stroke-linecap="round" stroke-linejoin="round"/>
<path d="M539.507 183.054C541.882 183.054 543.808 181.128 543.808 178.752C543.808 176.377 541.882 174.451 539.507 174.451C537.131 174.451 535.205 176.377 535.205 178.752C535.205 181.128 537.131 183.054 539.507 183.054Z" stroke="#ECB22E" stroke-width="1.91179" stroke-linecap="round" stroke-linejoin="round"/>
<path d="M556.712 180.186C559.087 180.186 561.013 178.26 561.013 175.885C561.013 173.509 559.087 171.583 556.712 171.583C554.336 171.583 552.41 173.509 552.41 175.885C552.41 178.26 554.336 180.186 556.712 180.186Z" stroke="#ECB22E" stroke-width="1.91179" stroke-linecap="round" stroke-linejoin="round"/>
</g>
</g>
<defs>
<clipPath id="clip0_2684_6773">
<rect width="34.4122" height="34.4122" fill="white" transform="translate(39.5723 23.8973)"/>
</clipPath>
<clipPath id="clip1_2684_6773">
<rect width="34.4122" height="34.4122" fill="white" transform="translate(223.105 152.943)"/>
</clipPath>
</defs>
</svg>
