<svg width="10" height="10" viewBox="0 0 10 10" fill="none" xmlns="http://www.w3.org/2000/svg">
<g clip-path="url(#clip0_2543_5144)">
<path d="M9.35548 5.00017C9.35548 4.88455 9.28986 4.7783 9.18986 4.72518L7.88679 4.03771L9.18986 3.35024C9.29298 3.29711 9.35548 3.19087 9.35548 3.07525C9.35548 2.95963 9.28986 2.85338 9.18986 2.80026L5.14628 0.662844C5.05565 0.61597 4.94628 0.61597 4.85566 0.662844L0.80895 2.79713C0.708954 2.85026 0.643332 2.9565 0.643332 3.07212C0.643332 3.18774 0.708954 3.29399 0.80895 3.34711L2.11202 4.03458L0.80895 4.72205C0.708954 4.7783 0.643332 4.88455 0.643332 5.00017C0.643332 5.11579 0.708954 5.22203 0.80895 5.27516L2.11202 5.96263L0.80895 6.6501C0.70583 6.70323 0.643332 6.80947 0.643332 6.92509C0.643332 7.04071 0.708954 7.14696 0.80895 7.2032L4.85254 9.33749C4.89941 9.36249 4.94941 9.37499 4.99941 9.37499C5.0494 9.37499 5.0994 9.36249 5.14628 9.33749L9.18986 7.2032C9.29298 7.15008 9.35548 7.04384 9.35548 6.92509C9.35548 6.80947 9.28986 6.70323 9.18986 6.6501L7.88679 5.96263L9.18986 5.27516C9.29298 5.22203 9.35548 5.11579 9.35548 5.00017ZM4.99941 1.29094L8.37427 3.07212L4.99941 4.85018L1.62454 3.07212L4.99941 1.29094ZM8.37427 6.92822L4.99941 8.70939L1.62454 6.92822L2.78387 6.31887L4.85254 7.41257C4.89941 7.43757 4.94941 7.45007 4.99941 7.45007C5.0494 7.45007 5.0994 7.43757 5.14628 7.41257L7.21494 6.31887L8.37427 6.92822ZM4.99941 6.78135L1.62454 5.00017L2.78387 4.38769L4.85566 5.47828C4.90254 5.50327 4.95253 5.51577 5.00253 5.51577C5.05253 5.51577 5.10253 5.50327 5.1494 5.47828L7.22119 4.38769L8.37427 5.00017L4.99941 6.78135Z" fill="white"/>
</g>
<defs>
<clipPath id="clip0_2543_5144">
<rect width="9.98788" height="9.98788" fill="white" transform="scale(1.00117)"/>
</clipPath>
</defs>
</svg>
