<svg width="136" height="25" viewBox="0 0 136 25" fill="none" xmlns="http://www.w3.org/2000/svg">
<path d="M34.365 4.72909H29.8329C29.0073 4.72909 28.3217 5.41483 28.3217 6.24448V18.3622C28.3217 19.1901 29.0055 19.8776 29.8329 19.8776H34.365C38.5427 19.8776 41.9178 16.4933 41.9178 12.3042C41.9178 8.11517 38.5427 4.72909 34.365 4.72909ZM34.365 17.1187H31.0714V7.48627H34.365C37.0137 7.48627 39.1681 9.64654 39.1681 12.3025C39.1681 14.9584 37.0137 17.1187 34.365 17.1187Z" fill="white"/>
<path d="M49.6853 8.86125C48.6772 8.86125 47.7329 9.14194 46.9392 9.6145V6.10762C46.9392 5.35437 46.3173 4.7308 45.5661 4.7308C44.8149 4.7308 44.193 5.35437 44.193 6.10762V18.5007C44.193 19.254 44.8149 19.8776 45.5661 19.8776C46.3173 19.8776 46.9392 19.254 46.9392 18.5007V14.3703C46.9392 12.8425 48.1616 11.6167 49.6853 11.6167C51.209 11.6167 52.4315 12.8425 52.4315 14.3703V18.5007C52.4315 19.254 53.0533 19.8776 53.8045 19.8776C54.5557 19.8776 55.1776 19.254 55.1776 18.5007V14.3685C55.1776 11.336 52.7096 8.86125 49.6853 8.86125Z" fill="white"/>
<path d="M59.2129 8.86313C58.4617 8.86313 57.8398 9.48669 57.8398 10.2399V18.5008C57.8398 19.2541 58.4617 19.8777 59.2129 19.8777C59.9641 19.8777 60.586 19.2541 60.586 18.5008V10.2399C60.586 9.48669 59.9641 8.86313 59.2129 8.86313Z" fill="white"/>
<path d="M77.3236 4.7308C76.5724 4.7308 75.9505 5.35437 75.9505 6.10762V15.1875L72.1095 11.336C71.8526 11.057 71.4876 10.9274 71.1439 10.9274C70.8002 10.9274 70.4352 11.057 70.1783 11.336L66.3372 15.1875V6.10762C66.3372 5.35437 65.7154 4.7308 64.9642 4.7308C64.2129 4.7308 63.5911 5.35437 63.5911 6.10762V18.5007C63.5911 19.254 64.2129 19.8776 64.9642 19.8776C65.3291 19.8776 65.6728 19.7265 65.9297 19.469L71.1421 14.2406L76.3563 19.469C76.6132 19.7265 76.9569 19.8776 77.3218 19.8776C78.073 19.8776 78.6949 19.254 78.6949 18.5007H78.6967V6.10762C78.6967 5.35437 78.0748 4.7308 77.3236 4.7308Z" fill="white"/>
<path d="M83.0718 8.86313C82.3206 8.86313 81.6987 9.48669 81.6987 10.2399V18.5008C81.6987 19.2541 82.3206 19.8777 83.0718 19.8777C83.823 19.8777 84.4448 19.2541 84.4448 18.5008V10.2399C84.4448 9.48669 83.823 8.86313 83.0718 8.86313Z" fill="white"/>
<path d="M93.2851 12.9919H90.5389C90.1509 12.9919 89.8515 12.6917 89.8515 12.3026C89.8515 11.9136 90.1527 11.6133 90.5389 11.6133H94.6581C95.4093 11.6133 96.0312 10.9898 96.0312 10.2365C96.0312 9.48326 95.4093 8.8597 94.6581 8.8597H90.5389C88.6503 8.8597 87.1053 10.4088 87.1053 12.3026C87.1053 14.1964 88.6503 15.7456 90.5389 15.7456H93.2851C93.6713 15.7456 93.9707 16.0458 93.9707 16.4349C93.9707 16.8239 93.6713 17.1241 93.2851 17.1241H88.4784C87.7272 17.1241 87.1053 17.7477 87.1053 18.501C87.1053 19.2542 87.7272 19.8778 88.4784 19.8778H93.2851C95.1719 19.8778 96.7169 18.3286 96.7169 16.4349C96.7169 14.5411 95.1737 12.9919 93.2851 12.9919Z" fill="white"/>
<path d="M104.186 8.86313C101.16 8.86313 98.694 11.3378 98.694 14.3704C98.694 17.4029 101.16 19.8777 104.186 19.8777H105.558C106.309 19.8777 106.931 19.2541 106.931 18.5008C106.931 17.7476 106.309 17.124 105.558 17.124H104.185C103.155 17.124 102.276 16.5857 101.803 15.7472H108.306C109.057 15.7472 109.679 15.1236 109.679 14.3704C109.679 11.3378 107.211 8.86313 104.186 8.86313ZM101.803 12.9918C102.276 12.1746 103.155 11.615 104.185 11.615C105.193 11.615 106.094 12.1746 106.566 12.9918H101.803Z" fill="white"/>
<path d="M59.2124 7.82908C60.0657 7.82908 60.7573 7.13551 60.7573 6.27994C60.7573 5.42438 60.0657 4.7308 59.2124 4.7308C58.3592 4.7308 57.6675 5.42438 57.6675 6.27994C57.6675 7.13551 58.3592 7.82908 59.2124 7.82908Z" fill="white"/>
<path d="M83.0713 7.82908C83.9245 7.82908 84.6162 7.13551 84.6162 6.27994C84.6162 5.42438 83.9245 4.7308 83.0713 4.7308C82.2181 4.7308 81.5264 5.42438 81.5264 6.27994C81.5264 7.13551 82.2181 7.82908 83.0713 7.82908Z" fill="white"/>
<path d="M17.1112 0H1.57505C0.705141 0 0 0.707062 0 1.57934V18.7904C0 19.43 0.384461 20.0056 0.972669 20.249C1.55911 20.4923 2.23767 20.3573 2.68946 19.9061L10.2742 12.3007C10.8889 11.6843 10.8889 10.6841 10.2742 10.0676C9.65937 9.45117 8.6619 9.45117 8.04711 10.0676L3.1501 14.978V3.15868H17.113C19.4711 3.15868 21.3881 5.08267 21.3881 7.44546V17.1578C21.3881 19.5224 19.4693 21.4446 17.113 21.4446H9.6009L14.4979 16.5342C15.1127 15.9178 15.1127 14.9176 14.4979 14.3011C13.8831 13.6847 12.8857 13.6847 12.2709 14.3011L4.6844 21.9082C4.23439 22.3595 4.09974 23.0399 4.34246 23.6297C4.58696 24.2195 5.161 24.605 5.79704 24.605H17.1094C21.2038 24.605 24.5347 21.2651 24.5347 17.1596V7.44724C24.5382 3.34166 21.2074 0 17.1112 0Z" fill="white"/>
<path d="M17.0448 13.3276C17.9148 13.3276 18.6199 12.6205 18.6199 11.7482V7.51298C18.6199 6.6407 17.9148 5.93364 17.0448 5.93364H12.8211C11.9512 5.93364 11.246 6.6407 11.246 7.51298C11.246 8.38526 11.9512 9.09232 12.8211 9.09232H15.4698V11.7482C15.4698 12.6205 16.1749 13.3276 17.0448 13.3276Z" fill="white"/>
<path d="M117.295 16.392C117.608 16.2872 117.869 16.0776 118.051 15.8413C118.234 15.5801 118.338 15.2923 118.338 14.9246C118.338 14.4005 118.156 13.9546 117.791 13.6668C117.399 13.379 116.878 13.2209 116.2 13.2209H113.982C113.641 13.2209 113.459 13.4039 113.459 13.745V19.3002C113.459 19.6413 113.643 19.8243 113.982 19.8243V19.7994H116.278C116.956 19.7994 117.504 19.6413 117.895 19.3268C118.287 19.0124 118.496 18.5665 118.496 17.9642C118.496 17.545 118.391 17.2057 118.182 16.9427C117.973 16.6798 117.66 16.4968 117.295 16.392ZM114.373 14.0328H116.042C116.956 14.0328 117.399 14.3739 117.399 15.0809C117.399 15.7613 116.93 16.1291 116.042 16.1291H114.373V14.0328ZM116.173 19.0639H114.373V16.861H116.173C117.087 16.861 117.53 17.2288 117.53 17.9625C117.53 18.6962 117.086 19.0639 116.173 19.0639Z" fill="white"/>
<path d="M123.384 19.0355H120.384V16.861H123.176C123.437 16.861 123.568 16.7313 123.568 16.4684C123.568 16.2072 123.437 16.0758 123.176 16.0758H120.384V14.0061H123.359C123.619 14.0061 123.751 13.8764 123.751 13.6135C123.751 13.3524 123.619 13.2209 123.359 13.2209H119.968C119.628 13.2209 119.445 13.4039 119.445 13.745V19.3002C119.445 19.6413 119.63 19.8243 119.968 19.8243C119.968 19.8243 123.386 19.8243 123.384 19.8207C123.644 19.8207 123.775 19.691 123.775 19.4281C123.775 19.167 123.644 19.0355 123.384 19.0355Z" fill="white"/>
<path d="M130.388 13.6669C130.388 13.4057 130.232 13.2743 129.945 13.2743H125.041C124.754 13.2743 124.623 13.4039 124.623 13.6669C124.623 13.928 124.754 14.0595 125.041 14.0595H126.997V19.3802C126.997 19.6947 127.153 19.8776 127.466 19.8776C127.778 19.8776 127.936 19.7195 127.962 19.4051V14.0595H129.945C130.257 14.0595 130.388 13.9547 130.388 13.6669Z" fill="white"/>
<path d="M135.926 19.2488L133.396 13.5621C133.343 13.4306 133.265 13.3009 133.161 13.2476C133.056 13.1695 132.952 13.1428 132.847 13.1428C132.743 13.1428 132.638 13.1943 132.534 13.2476C132.429 13.3258 132.349 13.4306 132.298 13.5621L129.768 19.2488C129.69 19.4317 129.663 19.565 129.741 19.6947C129.819 19.8244 129.95 19.8777 130.133 19.8777C130.262 19.8777 130.367 19.851 130.445 19.7728C130.523 19.7213 130.602 19.6165 130.654 19.4584L131.176 18.2273H134.518L135.065 19.4584C135.119 19.5899 135.196 19.6947 135.274 19.7728C135.352 19.851 135.457 19.8777 135.588 19.8777C135.771 19.8777 135.902 19.8261 135.953 19.6947C136.031 19.5632 136.004 19.4317 135.926 19.2488ZM131.517 17.4385L132.821 14.3207L134.178 17.4385H131.517Z" fill="white"/>
</svg>
