<svg width="20" height="20" viewBox="0 0 20 20" fill="none" xmlns="http://www.w3.org/2000/svg">
<path fill-rule="evenodd" clip-rule="evenodd" d="M15.7149 10.9524H10.953V15.7143C10.953 16.2381 10.5245 16.6666 10.0007 16.6666C9.47684 16.6666 9.04827 16.2381 9.04827 15.7143V10.9524H4.28637C3.76256 10.9524 3.33398 10.5238 3.33398 9.99998C3.33398 9.47617 3.76256 9.0476 4.28637 9.0476H9.04827V4.28569C9.04827 3.76188 9.47684 3.33331 10.0007 3.33331C10.5245 3.33331 10.953 3.76188 10.953 4.28569V9.0476H15.7149C16.2387 9.0476 16.6673 9.47617 16.6673 9.99998C16.6673 10.5238 16.2387 10.9524 15.7149 10.9524Z" fill="#BDC1C6"/>
</svg>
