<svg width="16" height="16" viewBox="0 0 16 16" fill="none" xmlns="http://www.w3.org/2000/svg">
<path fill-rule="evenodd" clip-rule="evenodd" d="M7.9996 2.00777C7.81705 1.98266 7.62504 2.03539 7.47764 2.16879L2.21064 6.93545C1.94698 7.17406 1.92566 7.58086 2.16294 7.84573C2.40192 8.1125 2.81228 8.134 3.07784 7.89368L3.47349 7.53561V12.7047V13C3.47349 13.5523 3.9212 14 4.47349 14H4.76224H11.206H11.4947C12.047 14 12.4947 13.5523 12.4947 13V12.7047V7.50758L12.9214 7.89368C13.1869 8.134 13.5973 8.1125 13.8363 7.84573C14.0735 7.58086 14.0522 7.17406 13.7886 6.93545L8.52157 2.16879C8.37417 2.03539 8.18216 1.98266 7.9996 2.00777ZM4.76224 6.36929V7.22798V8.18566V8.22798V10.7047V12V12.0423V12.7047H5.42916H5.47349H6.76224H9.206H10.4947H10.5391H11.206V12.0423V12V10.7047V8.22798V8.18566V7.22798V6.34125L7.9996 3.43945L4.76224 6.36929Z" fill="white"/>
</svg>
