<svg width="142" height="43" viewBox="0 0 142 43" fill="none" xmlns="http://www.w3.org/2000/svg">
<path d="M122.158 42.17C117.246 44.0689 115.249 42.2699 115.249 41.1345C116.989 40.9881 121.146 40.7498 122.158 42.17ZM128.392 40.6173C127.172 41.5124 125.673 41.9456 124.163 41.8399C122.653 41.7341 121.23 41.0961 120.148 40.0397C121.824 39.5749 126.4 39.024 128.392 40.6173ZM120.082 36.9263C120.269 39.289 117.845 40.6173 115.229 40.8091C115.706 38.4325 118.149 37.3714 120.082 36.9263ZM124.775 34.7485C125.052 35.7584 124.672 38.4999 120.908 39.5877C121.069 37.7364 122.055 35.326 124.775 34.7485ZM132.24 37.4969C131.274 38.4584 130.002 39.0514 128.644 39.1726C127.286 39.2939 125.929 38.9357 124.808 38.1605C126.316 37.3842 129.939 36.336 132.24 37.4969ZM128.263 32.0278C128.778 33.0227 128.888 35.8571 125.555 37.5632C125.362 35.7386 126.096 32.6182 128.263 32.0278ZM136.507 33.1296C136.193 33.7459 135.757 34.2921 135.225 34.735C134.694 35.1779 134.078 35.5083 133.414 35.7061C132.757 35.8987 132.067 35.9527 131.387 35.8647C130.708 35.7767 130.055 35.5485 129.468 35.1947C131.569 33.2225 134.921 32.466 136.507 33.1296ZM131.525 27.8452C133.02 30.4485 131.44 33.4213 129.797 34.6427C129.066 32.2231 129.736 29.5862 131.524 27.8452H131.525ZM139.279 27.7325C139.46 31.7757 135.231 31.556 133.245 31.5827C133.87 30.7332 137.345 27.6535 139.279 27.7325ZM134.065 23.9555C134.85 24.819 136.029 28.1381 133.419 30.8459C132.6 28.8877 132.42 25.8812 134.064 23.9555H134.065ZM141.496 22.1635C141.631 25.4291 138.879 27.0817 136.224 27.0561C137.022 25.4826 139.157 22.4494 141.496 22.1635ZM135.927 19.9135C137.687 20.9479 137.487 24.2879 136.448 26.0265C135.282 24.4076 134.412 22.3959 135.927 19.9135ZM141.612 16.8536C142.482 19.8275 139.924 21.8392 138.389 22.0112C138.782 20.5911 139.298 18.075 141.613 16.8536H141.612ZM136.249 15.8646C138.19 16.835 139.109 19.1558 138.383 21.2477C137.029 20.1588 135.399 17.8554 136.249 15.8646ZM141.702 12.2666C142.901 15.8843 140.149 17.0663 139.124 17.3568C139.247 15.8181 140.227 12.7512 141.702 12.2666ZM136.326 11.3171C137.113 11.5437 139.356 13.3822 138.95 16.6746C137.474 15.8448 135.681 14.2643 136.326 11.3171ZM140.89 6.78466C142.231 11.2311 139.994 13.0568 139.259 13.4206C139.143 12.0144 139.001 8.72895 140.89 6.78466ZM135.927 6.89623C137.332 7.28788 139.105 9.86321 139.021 12.3398C137.629 11.7029 135.546 9.05435 135.927 6.89623ZM136.346 0C139.607 3.3656 140.065 6.01997 139.111 9.2926C137.634 7.96541 136.455 3.98271 136.346 0ZM19.8415 42.17C24.7533 44.0689 26.7506 42.2699 26.7506 41.1345C25.0105 40.9881 20.8529 40.7498 19.8415 42.17ZM13.6063 40.6173C14.8261 41.5124 16.3246 41.9456 17.8346 41.8399C19.3446 41.7341 20.7678 41.0961 21.8504 40.0397C20.1744 39.5749 15.5978 39.024 13.6063 40.6173ZM21.9156 36.9263C21.7294 39.289 24.1527 40.6173 26.7692 40.8091C26.292 38.4325 23.8489 37.3714 21.9156 36.9263ZM17.2238 34.7485C16.9468 35.7584 17.3274 38.4999 21.0916 39.5877C20.9298 37.7364 19.9439 35.326 17.2238 34.7485ZM9.75955 37.4969C10.7247 38.4584 11.9971 39.0514 13.355 39.1726C14.713 39.2939 16.0705 38.9357 17.1912 38.1605C15.6828 37.3842 12.0606 36.336 9.75955 37.4969ZM13.7367 32.0278C13.2211 33.0227 13.1117 35.8571 16.444 37.5632C16.6372 35.7386 15.9028 32.6182 13.7367 32.0278ZM5.49259 33.1296C5.80629 33.7459 6.24219 34.2921 6.77382 34.735C7.30545 35.1779 7.9217 35.5083 8.58514 35.7061C9.24239 35.8987 9.93258 35.9527 10.6119 35.8647C11.2911 35.7767 11.9446 35.5485 12.5309 35.1947C10.43 33.2225 7.07786 32.466 5.49259 33.1296ZM10.4742 27.8452C8.97971 30.4485 10.5592 33.4213 12.2026 34.6427C12.9336 32.2231 12.2632 29.5862 10.4754 27.8452H10.4742ZM2.72011 27.7325C2.5397 31.7757 6.76825 31.556 8.75391 31.5827C8.12888 30.7332 4.65456 27.6535 2.72011 27.7325ZM7.93451 23.9555C7.14886 24.819 5.9698 28.1381 8.58049 30.8459C9.39873 28.8877 9.57914 25.8812 7.93567 23.9555H7.93451ZM0.503994 22.1635C0.368978 25.4291 3.12167 27.0817 5.77659 27.0561C4.97813 25.4826 2.84349 22.4494 0.503994 22.1635ZM6.07339 19.9135C4.31353 20.9479 4.51372 24.2879 5.55195 26.0265C6.7182 24.4076 7.58882 22.3959 6.07339 19.9135ZM0.387601 16.8536C-0.483017 19.8275 2.0753 21.8392 3.61052 22.0112C3.21711 20.5911 2.70149 18.075 0.386437 16.8536H0.387601ZM5.74982 15.8646C3.80955 16.835 2.89005 19.1558 3.61634 21.2477C4.96998 20.1588 6.60065 17.8554 5.74982 15.8646ZM0.296814 12.2666C-0.902031 15.8843 1.85066 17.0663 2.87491 17.3568C2.7527 15.8181 1.77267 12.7512 0.296814 12.2666ZM5.673 11.3171C4.88618 11.5437 2.64329 13.3822 3.0495 16.6746C4.52536 15.8448 6.31781 14.2643 5.673 11.3171ZM1.10924 6.78466C-0.231609 11.2311 2.00546 13.0568 2.7399 13.4206C2.85629 12.0144 2.99829 8.72895 1.10924 6.78466ZM6.07222 6.89623C4.66736 7.28788 2.8947 9.86321 2.9785 12.3398C4.37056 11.7029 6.45283 9.05435 6.07222 6.89623ZM5.65321 0C2.39188 3.3656 1.93446 6.01997 2.88772 9.2926C4.36474 7.96541 5.5438 3.98271 5.65321 0ZM60.3008 40.6754C60.4684 40.6754 60.5988 40.5639 60.5988 40.3965V38.5557C60.5992 38.5165 60.5918 38.4776 60.577 38.4413C60.5622 38.405 60.5403 38.372 60.5125 38.3443C60.4848 38.3165 60.4517 38.2946 60.4154 38.2799C60.379 38.2651 60.34 38.2577 60.3008 38.2582H55.7382L58.8482 35.0971C59.351 34.5765 60.5801 33.4236 60.5801 31.4898C60.5801 29.2026 58.811 27.5105 56.2596 27.5105C54.2297 27.5105 52.9448 28.5704 52.1998 29.6489C52.1067 29.7605 52.1067 29.9278 52.2371 30.058L53.5221 31.341C53.6897 31.4898 53.8014 31.5084 53.9504 31.341C54.4346 30.7088 55.0119 30.1138 56.0175 30.1138C57.0977 30.1138 57.8053 30.7832 57.8053 31.7501C57.8053 32.903 56.8556 33.7769 56.3341 34.2975L52.4606 38.221C52.3773 38.32 52.3312 38.4449 52.3302 38.5743V40.3965C52.3302 40.5639 52.4606 40.6754 52.6282 40.6754H60.3008ZM67.5823 40.9172C70.2826 40.9172 72.9085 38.9833 72.9085 34.2232C72.9085 29.463 70.2826 27.5105 67.5823 27.5105C64.9006 27.5105 62.2562 29.463 62.2562 34.2232C62.2562 38.9833 64.9006 40.9172 67.5823 40.9172ZM67.5823 38.2953C65.7387 38.2953 65.0124 36.5103 65.0124 34.2232C65.0124 31.936 65.7387 30.1324 67.5823 30.1324C69.4074 30.1324 70.1337 31.936 70.1337 34.2232C70.1337 36.5103 69.4074 38.2953 67.5823 38.2953ZM82.611 40.6754C82.7786 40.6754 82.9089 40.5639 82.9089 40.3965V38.5557C82.9094 38.5165 82.902 38.4776 82.8872 38.4413C82.8724 38.405 82.8505 38.372 82.8227 38.3443C82.7949 38.3165 82.7619 38.2946 82.7255 38.2799C82.6892 38.2651 82.6502 38.2577 82.611 38.2582H78.0484L81.1584 35.0971C81.6612 34.5765 82.8903 33.4236 82.8903 31.4898C82.8903 29.2026 81.1211 27.5105 78.5698 27.5105C76.5399 27.5105 75.2549 28.5704 74.51 29.6489C74.4169 29.7605 74.4169 29.9278 74.5473 30.058L75.8322 31.341C75.9998 31.4898 76.1116 31.5084 76.2606 31.341C76.7448 30.7088 77.3221 30.1138 78.3277 30.1138C79.4078 30.1138 80.1155 30.7832 80.1155 31.7501C80.1155 32.903 79.1657 33.7769 78.6443 34.2975L74.7707 38.221C74.6874 38.32 74.6413 38.4449 74.6404 38.5743V40.3965C74.6404 40.5639 74.7707 40.6754 74.9383 40.6754H82.611ZM89.2221 40.6754C89.3897 40.6754 89.52 40.5639 89.52 40.3965V27.9382C89.52 27.7709 89.3897 27.6593 89.2221 27.6593H84.4732C84.3056 27.6593 84.1939 27.7709 84.1939 27.9382V29.7791C84.1939 29.9464 84.3056 30.0766 84.4732 30.0766H86.6707V40.3965C86.6707 40.5639 86.7825 40.6754 86.9501 40.6754H89.2221ZM20.3804 17.5834C22.7082 17.5834 24.1166 15.8518 24.1166 13.7367V12.8999C24.1166 12.7953 24.0468 12.7256 23.942 12.7256H20.4153C20.3106 12.7256 20.2407 12.7953 20.2407 12.8999V14.1667C20.2407 14.2713 20.3106 14.3526 20.4153 14.3526H22.3591C22.2892 15.1196 21.6142 15.7821 20.4386 15.7821C19.0186 15.7821 18.006 14.7826 18.006 13.3997C18.006 12.0167 19.0186 11.0056 20.3455 11.0056C21.0322 11.0056 21.5909 11.2613 22.0332 11.6448C22.1263 11.7145 22.2194 11.7145 22.3125 11.6099L23.1738 10.6918C23.2786 10.5756 23.2786 10.471 23.1855 10.3664C22.4871 9.64589 21.521 9.20427 20.3338 9.20427C18.0293 9.20427 16.1437 11.0056 16.1437 13.3997C16.1437 15.7937 18.0293 17.5834 20.3804 17.5834ZM27.7713 17.5718C29.4939 17.5718 30.7743 16.2702 30.7743 14.5851C30.7743 12.8999 29.4939 11.5983 27.7713 11.5983C26.0487 11.5983 24.78 12.8999 24.78 14.5851C24.78 16.2702 26.0487 17.5718 27.7713 17.5718ZM27.7713 15.9448C27.0497 15.9448 26.491 15.4218 26.491 14.5851C26.491 13.7483 27.0497 13.2253 27.7713 13.2253C28.493 13.2253 29.0517 13.7483 29.0517 14.5851C29.0517 15.4218 28.493 15.9448 27.7713 15.9448ZM33.3815 17.4323C33.4862 17.4323 33.5677 17.3626 33.5677 17.258V9.29724C33.5677 9.19265 33.4862 9.12292 33.3815 9.12292H31.9498C31.8451 9.12292 31.7752 9.19265 31.7752 9.29724V17.258C31.7752 17.3626 31.8451 17.4323 31.9498 17.4323H33.3815ZM37.2457 17.5718C38.0605 17.5718 38.6424 17.2464 39.0265 16.7002L39.0498 17.258C39.0498 17.3626 39.1313 17.4323 39.236 17.4323H40.5163C40.6211 17.4323 40.7142 17.3626 40.7142 17.258V9.29724C40.7142 9.19265 40.6327 9.12292 40.528 9.12292H39.0964C38.9916 9.12292 38.9218 9.19265 38.9218 9.29724V12.3072C38.5377 11.854 37.9906 11.5983 37.2457 11.5983C35.6628 11.5983 34.5687 12.8999 34.5687 14.5851C34.5687 16.2818 35.6628 17.5718 37.2457 17.5718ZM37.6298 15.9564C36.8732 15.9564 36.3029 15.4218 36.3029 14.5851C36.3029 13.7599 36.8732 13.2137 37.6298 13.2137C38.4096 13.2137 38.945 13.7599 38.945 14.5734C38.945 15.4102 38.4096 15.9564 37.6298 15.9564ZM44.8578 17.5718C45.6609 17.5718 46.3942 17.3394 46.883 16.8513C46.9878 16.7583 46.9878 16.6653 46.9412 16.5956L46.464 15.9215C46.3942 15.8402 46.3476 15.8169 46.2545 15.8634C45.7773 16.1307 45.3816 16.1772 44.9975 16.1772C44.1827 16.1772 43.6473 15.875 43.4494 15.2591H46.7317C47.2555 15.2591 47.4068 14.9105 47.4068 14.3294C47.4068 12.8651 46.3942 11.5983 44.6483 11.5983C42.8908 11.5983 41.7152 12.8883 41.7152 14.5618C41.7152 16.2934 42.9839 17.5718 44.8578 17.5718ZM43.4262 14.0272C43.5658 13.3532 44.0663 13.0626 44.6599 13.0626C45.2535 13.0626 45.7075 13.3415 45.8239 14.0272H43.4262ZM50.0024 17.4323C50.1071 17.4323 50.1886 17.3626 50.1886 17.258V14.3759C50.1886 13.6205 50.561 13.2253 51.1779 13.2253C51.8064 13.2253 52.1323 13.6205 52.1323 14.3759V17.258C52.1323 17.3626 52.2138 17.4323 52.3186 17.4323H53.7269C53.8317 17.4323 53.9131 17.3626 53.9131 17.258V13.9575C53.9131 12.4699 53.0402 11.5983 51.853 11.5983C51.0383 11.5983 50.5145 12.0051 50.1886 12.5861L50.1304 11.9237C50.1304 11.7843 50.0605 11.7378 49.9558 11.7378H48.5824C48.4776 11.7378 48.4078 11.8075 48.4078 11.9121V17.258C48.4078 17.3626 48.4776 17.4323 48.5824 17.4323H50.0024ZM59.2556 17.4323C59.3603 17.4323 59.4302 17.3626 59.4302 17.258V15.3869L60.2682 14.3294L62.3633 17.3277C62.4215 17.4091 62.4797 17.4323 62.5728 17.4323H64.307C64.4467 17.4323 64.4933 17.3394 64.4118 17.2231L61.3972 12.8883L64.0859 9.50643C64.1557 9.40184 64.1441 9.29724 63.9928 9.29724H62.177C62.0956 9.29724 62.0257 9.32049 61.9675 9.39022L59.4302 12.8651V9.47157C59.4302 9.36697 59.3603 9.29724 59.2556 9.29724H57.7658C57.661 9.29724 57.5912 9.36697 57.5912 9.47157V17.258C57.5912 17.3626 57.661 17.4323 57.7658 17.4323H59.2556ZM66.2973 10.8313C66.856 10.8313 67.2634 10.4013 67.2634 9.85508C67.2634 9.32049 66.856 8.89049 66.2973 8.89049C65.7387 8.89049 65.3196 9.32049 65.3196 9.85508C65.3196 10.4013 65.7387 10.8313 66.2973 10.8313ZM67.019 17.4323C67.1237 17.4323 67.1936 17.3626 67.1936 17.258V11.9121C67.1936 11.8075 67.1237 11.7378 67.019 11.7378H65.5757C65.471 11.7378 65.4011 11.8075 65.4011 11.9121V17.258C65.4011 17.3626 65.471 17.4323 65.5757 17.4323H67.019ZM70.7668 17.5718C71.1626 17.5718 71.7911 17.5021 71.7911 17.2115V16.2469C71.7911 16.1307 71.698 16.0726 71.5816 16.0842C71.4303 16.0959 71.3255 16.0959 71.2208 16.0959C70.9298 16.0959 70.7319 15.9332 70.7319 15.6194V13.1091H71.6049C71.7096 13.1091 71.7794 13.0394 71.7794 12.9348V11.9121C71.7794 11.8075 71.7096 11.7378 71.6049 11.7378H70.7319V10.4013C70.7319 10.2967 70.6504 10.227 70.5457 10.227H69.114C69.0093 10.227 68.9278 10.2967 68.9278 10.4013V11.7378H68.2178C68.1131 11.7378 68.0432 11.8075 68.0432 11.9121V12.9348C68.0432 13.0394 68.1131 13.1091 68.2178 13.1091H68.9278V15.8169C68.9278 17.1418 69.824 17.5718 70.7668 17.5718ZM75.1083 17.5718C75.504 17.5718 76.1325 17.5021 76.1325 17.2115V16.2469C76.1325 16.1307 76.0394 16.0726 75.923 16.0842C75.7717 16.0959 75.667 16.0959 75.5622 16.0959C75.2712 16.0959 75.0734 15.9332 75.0734 15.6194V13.1091H75.9463C76.0511 13.1091 76.1209 13.0394 76.1209 12.9348V11.9121C76.1209 11.8075 76.0511 11.7378 75.9463 11.7378H75.0734V10.4013C75.0734 10.2967 74.9919 10.227 74.8871 10.227H73.4555C73.3507 10.227 73.2693 10.2967 73.2693 10.4013V11.7378H72.5593C72.4545 11.7378 72.3847 11.8075 72.3847 11.9121V12.9348C72.3847 13.0394 72.4545 13.1091 72.5593 13.1091H73.2693V15.8169C73.2693 17.1418 74.1655 17.5718 75.1083 17.5718ZM79.636 19.6404C79.7291 19.6404 79.8105 19.5939 79.8455 19.501L82.8717 11.9353C82.9182 11.8075 82.8484 11.7378 82.7204 11.7378H81.2771C81.184 11.7378 81.0909 11.7843 81.0559 11.8772L79.7989 15.3637L78.5419 11.8772C78.5069 11.7843 78.4138 11.7378 78.3207 11.7378H76.8774C76.7494 11.7378 76.6796 11.8075 76.7261 11.9353L78.9376 17.444L78.0996 19.4312C78.0414 19.5707 78.1112 19.6404 78.2509 19.6404H79.636ZM90.5187 9.4367C90.4838 9.34373 90.3906 9.29724 90.2975 9.29724H88.7146C88.6215 9.29724 88.5284 9.34373 88.4934 9.4367L85.7931 17.2348C85.7466 17.351 85.8164 17.4323 85.9444 17.4323H87.4925C87.5856 17.4323 87.6554 17.3975 87.6903 17.2929L88.0395 16.2004H90.9726L91.3218 17.2929C91.3567 17.3975 91.4265 17.4323 91.5197 17.4323H93.0793C93.2074 17.4323 93.2655 17.351 93.219 17.2348L90.5187 9.4367ZM89.5061 11.6332L90.4488 14.5734H88.5633L89.5061 11.6332ZM96.2685 17.4323C96.3616 17.4323 96.4431 17.3858 96.478 17.2929L97.6768 13.8064L98.864 17.2929C98.899 17.3858 98.9804 17.4323 99.0735 17.4323H100.528C100.622 17.4323 100.703 17.3858 100.738 17.2929L102.507 11.9353C102.554 11.8075 102.495 11.7378 102.367 11.7378H100.982C100.889 11.7378 100.808 11.7843 100.773 11.8772L99.7137 15.3637L98.5614 11.8772C98.5459 11.8348 98.5172 11.7984 98.4795 11.7733C98.4418 11.7482 98.3971 11.7358 98.3519 11.7378H96.9901C96.897 11.7378 96.8155 11.7843 96.7806 11.8772L95.6283 15.3637L94.5691 11.8772C94.5536 11.8348 94.5249 11.7984 94.4872 11.7733C94.4496 11.7482 94.4049 11.7358 94.3596 11.7378H92.9862C92.8582 11.7378 92.7883 11.8075 92.8349 11.9353L94.6041 17.2929C94.639 17.3858 94.7205 17.4323 94.8136 17.4323H96.2685ZM105.44 17.5718C106.255 17.5718 106.837 17.2464 107.221 16.7002L107.244 17.258C107.244 17.3626 107.326 17.4323 107.431 17.4323H108.711C108.816 17.4323 108.909 17.3626 108.909 17.258V11.9121C108.909 11.8075 108.827 11.7378 108.723 11.7378H107.431C107.326 11.7378 107.244 11.8075 107.244 11.9121L107.221 12.4583C106.849 11.9237 106.278 11.5983 105.44 11.5983C103.857 11.5983 102.763 12.8999 102.763 14.5851C102.763 16.2818 103.857 17.5718 105.44 17.5718ZM105.824 15.9564C105.068 15.9564 104.497 15.4218 104.497 14.5851C104.497 13.7599 105.068 13.2137 105.824 13.2137C106.604 13.2137 107.14 13.7599 107.14 14.5734C107.14 15.4102 106.604 15.9564 105.824 15.9564ZM111.795 17.4323C111.9 17.4323 111.982 17.3626 111.982 17.258V14.5153C111.982 13.6669 112.424 13.2021 113.157 13.2021C113.332 13.2021 113.46 13.2253 113.576 13.2602C113.739 13.2951 113.821 13.2602 113.821 13.1091V11.9818C113.821 11.8772 113.797 11.8075 113.716 11.7494C113.623 11.6797 113.471 11.5983 113.192 11.5983C112.529 11.5983 112.168 12.0632 111.982 12.6791L111.923 11.9237C111.923 11.7843 111.853 11.7378 111.749 11.7378H110.375C110.271 11.7378 110.201 11.8075 110.201 11.9121V17.258C110.201 17.3626 110.271 17.4323 110.375 17.4323H111.795ZM117.033 17.5718C117.848 17.5718 118.43 17.2464 118.814 16.7002L118.837 17.258C118.837 17.3626 118.919 17.4323 119.023 17.4323H120.304C120.408 17.4323 120.501 17.3626 120.501 17.258V9.29724C120.501 9.19265 120.42 9.12292 120.315 9.12292H118.884C118.779 9.12292 118.709 9.19265 118.709 9.29724V12.3072C118.325 11.854 117.778 11.5983 117.033 11.5983C115.45 11.5983 114.356 12.8999 114.356 14.5851C114.356 16.2818 115.45 17.5718 117.033 17.5718ZM117.417 15.9564C116.66 15.9564 116.09 15.4218 116.09 14.5851C116.09 13.7599 116.66 13.2137 117.417 13.2137C118.197 13.2137 118.732 13.7599 118.732 14.5734C118.732 15.4102 118.197 15.9564 117.417 15.9564ZM123.795 17.5718C124.948 17.5718 125.96 16.9675 125.972 15.7937C125.995 14.9337 125.425 14.434 124.715 14.1551L123.854 13.818C123.598 13.7134 123.4 13.5624 123.4 13.3532C123.4 13.1788 123.504 12.9813 123.854 12.9813C124.168 12.9813 124.482 13.144 124.855 13.4345C124.959 13.5042 125.041 13.5159 125.122 13.4345L125.716 12.7372C125.762 12.6675 125.797 12.5745 125.727 12.4932C125.227 11.9121 124.517 11.5983 123.76 11.5983C122.666 11.5983 121.712 12.2375 121.712 13.3532C121.712 14.1434 122.201 14.6315 122.946 14.9221L123.691 15.2242C124.075 15.3753 124.203 15.5032 124.203 15.724C124.203 15.9796 123.993 16.0959 123.679 16.0959C123.272 16.0959 122.888 15.9215 122.387 15.5613C122.294 15.5032 122.189 15.4683 122.096 15.6194L121.63 16.2702C121.549 16.3864 121.537 16.5259 121.596 16.6072C122.073 17.1767 122.829 17.5718 123.795 17.5718Z" fill="#ECA500"/>
</svg>
